<svg xmlns="http://www.w3.org/2000/svg" height="91.039mm" width="221.74mm" version="1.1" viewBox=" 0 0 785.68292947 322.57939909"><g transform="translate(22.5 22.5)"><path d="m0 0h17.228v10.63h14.394v-10.63h12.047v10.63h9.2126v-10.63h12.047v10.63h9.2126v-10.63h12.047v10.63h9.2126v-10.63h171.23v15.591h-10.63v12.756h10.63v12.047h-10.63v12.756h10.63v15.591h-17.228v-10.63h-14.394v10.63h-12.047v-10.63h-9.2126v10.63h-12.047v-10.63h-9.2126v10.63h-12.047v-10.63h-9.2126v10.63h-12.047v-10.63h-9.2126v10.63h-12.047v-10.63h-9.2126v10.63h-12.047v-10.63h-9.2126v10.63h-12.047v-10.63h-9.2126v10.63h-12.047v-10.63h-9.2126v10.63h-12.047v-10.63h-9.2126v10.63h-12.047v-10.63h-14.394v10.63h-17.228v-15.591h10.63v-12.756h-10.63v-12.047h10.63v-12.756h-10.63z" stroke="#000" stroke-width="0.9" fill="none"/></g><g transform="translate(289.13 22.5)"><path d="m0 0h17.228v10.63h14.394v-10.63h12.047v10.63h9.2126v-10.63h213.75v15.591h-10.63v12.756h10.63v12.047h-10.63v12.756h10.63v15.591h-17.228v-10.63h-14.394v10.63h-12.047v-10.63h-9.2126v10.63h-12.047v-10.63h-9.2126v10.63h-12.047v-10.63h-9.2126v10.63h-12.047v-10.63h-9.2126v10.63h-12.047v-10.63h-9.2126v10.63h-12.047v-10.63h-9.2126v10.63h-12.047v-10.63h-9.2126v10.63h-12.047v-10.63h-9.2126v10.63h-12.047v-10.63h-9.2126v10.63h-12.047v-10.63h-14.394v10.63h-17.228v-15.591h10.63v-12.756h-10.63v-12.047h10.63v-12.756h-10.63z" stroke="#000" stroke-width="0.9" fill="none"/></g><g transform="translate(555.76 22.5)"><path d="m201.04 0h-58.711v10.63h-9.2126v-10.63h-12.047v10.63h-9.2126v-10.63h-101.23v14.173h-10.63v15.591h10.63v9.2126h-10.63v15.591h10.63v14.173h8.8042v-58.11h80.379v58.11h12.047v-10.63h9.2126v10.63h12.047v-10.63h9.2126v10.63h12.047v-58.11h37.859v58.11h8.8042v-14.173h10.63v-15.591h-10.63v-9.2126h10.63v-15.591h-10.63z" stroke="#000" stroke-width="0.9" fill="none"/></g><g transform="matrix(1 0 0 -1 555.76 159.98)"><path d="m10.63 0h8.8042v10.63h16.6v-10.63h12.047v10.63h9.2126v-10.63h12.047v10.63h9.2126v-10.63h12.047v10.63h9.2126v-10.63h12.047v10.63h9.2126v-10.63h12.047v10.63h9.2126v-10.63h12.047v10.63h9.2126v-10.63h12.047v10.63h16.6v-10.63h8.8042v14.173h10.63v15.591h-10.63v9.2126h10.63v15.591h-10.63v14.173h-8.8042v-10.63h-16.6v10.63h-12.047v-10.63h-9.2126v10.63h-12.047v-10.63h-9.2126v10.63h-75.827v-10.63h-9.2126v10.63h-12.047v-10.63h-16.6v10.63h-8.8042v-14.173h-10.63v-15.591h10.63v-9.2126h-10.63v-15.591h10.63z" stroke="#000" stroke-width="0.9" fill="none"/></g><g transform="translate(22.5 91.24)"><path d="m38.311 91.24v10.629h-5.1797v7.3887h-10.631v83.213h10.631v9.2129h-10.631v12.047h10.631v9.2129h-10.631v12.047h10.631v9.2129h-10.631v40.693h10.631v7.3867h5.1797v10.631h17.229v-10.631h9.2129v10.631h12.047v-10.631h9.2129v10.631h12.047v-10.631h9.2129v10.631h12.047v-10.631h9.2129v10.631h12.047v-10.631h9.2129v10.631h12.047v-10.631h9.2129v10.631h12.049v-10.631h9.2109v10.631h12.049v-10.631h9.2109v10.631h12.049v-10.631h9.2109v10.631h12.049v-10.631h9.2109v10.631h17.229v-10.631h5.1816v-7.3867h10.631v-19.434h-10.631v-9.2129h10.631v-12.047h-10.631v-9.2129h10.631v-12.047h-10.631v-9.2129h10.631v-12.047h-10.631v-9.2129h10.631v-12.047h-10.631v-9.2129h10.631v-12.047h-10.631v-9.2129h10.631v-12.047h-10.631v-9.2129h10.631v-19.434h-10.631v-7.3887h-5.1816v-10.629h-17.229v10.629h-9.2109v-10.629h-12.049v10.629h-9.2109v-10.629h-12.049v10.629h-9.2109v-10.629h-12.049v10.629h-9.2109v-10.629h-12.049v10.629h-9.2129v-10.629h-12.047v10.629h-9.2129v-10.629h-12.047v10.629h-9.2129v-10.629h-12.047v10.629h-9.2129v-10.629h-12.047v10.629h-9.2129v-10.629h-12.047v10.629h-9.2129v-10.629z" transform="translate(-22.5 -91.24)" stroke="#000" stroke-width="0.9" fill="none"/></g><g transform="translate(289.13 91.24)" fill="#af0000"><path d="m304.94 91.24v10.63h-5.18v99.81h-10.63v12.05h10.63v9.21h-10.63v12.05h10.63v57.29h5.18v10.63h17.23v-10.63h9.21v10.63h12.05v-10.63h9.21v10.63h12.05v-10.63h9.21v10.63h12.05v-27.6h149.72v16.97h9.46v-7.38h10.63v-19.44h-10.63v-9.21h10.63v-12.05h-10.63v-9.21h-62.97v-63.78h62.97 10.63v-12.05h-10.63v-9.21h10.63v-12.05h-10.63v-9.21h10.63v-19.43h-10.63v-7.39h-9.46v18.48l-153.01-0.22v21.51h-39.23v-50.4h-12.05v10.63h-9.21v-10.63h-17.23zm93.23 81.08h50v9.21h-20.4v31.58h10.93v-15.6h9.47v15.6 9.21h-50v-24.81h9.47v15.6h10.92v-31.58h-20.39v-9.21z" transform="translate(-289.13 -91.24)" stroke="#000" stroke-width="0.9" fill="none"/></g></svg>
