<svg xmlns="http://www.w3.org/2000/svg" height="102.7mm" width="207.7mm" version="1.1" viewBox=" 0 0 735.945487 363.897937"><g stroke="#000" fill="none"><g stroke-width="0.09"><g transform="translate(22.5 22.5)"><title>Front</title><path d="m0 0h79.724v10.63h10.63v-10.63h10.63v10.63h10.63v-10.63h74.41v10.63h13.287v-10.63h13.29v10.63h-10.63v10.63h10.63v10.63h-10.63v10.63h10.63v10.63h-13.29v-10.63h-13.29v10.63h-10.63v-35.239h-53.15v35.239h-10.63v-10.63h-10.63v10.63h-10.626v-10.63h-10.63v10.63h-10.629l-0.142-35.239h-47.997l0.141 35.239h-21.097v-10.63h10.63v-10.63h-10.63v-10.63h10.63v-10.63h-10.63z" stroke="#000" stroke-width="0.09" fill="none"/></g><g transform="translate(235.1 22.5)"><title>Back</title><path d="m0 0h13.287v10.63h13.288v-10.63h10.63v10.63h10.63v-10.63h10.63v10.63h10.63v-10.63h10.63v10.63h10.63v-10.63h53.15v10.63h10.63v-10.63h10.63v10.63h10.63v-10.63h10.63v10.63h13.287v-10.63h13.29v10.63h-10.63v10.63h10.63v10.63h-10.63v10.63h10.63v10.63h-13.29v-10.63h-13.29v10.63h-10.63v-10.63h-10.63v10.63h-10.63v-10.63h-10.63v10.63h-10.63v-10.63h-10.63v10.63h-10.63v-10.63h-10.63v10.63h-10.626v-10.63h-10.63v10.63h-10.629v-10.63h-10.63v10.63h-10.63v-10.63h-10.63v10.63h-10.63v-10.63h-13.288v10.63h-13.287v-10.63h10.63v-10.63h-10.63v-10.63h10.63v-10.63h-10.63z" stroke="#000" stroke-width="0.09" fill="none"/></g><g transform="translate(447.7 22.5)"><title>Left</title><path d="m10.63 0h5.315v10.63h15.945v-10.63h10.63v10.63h10.63v-10.63h10.63v10.63h10.63v-10.63h10.629v10.63h10.63v-10.63h10.63v10.63h10.63v-10.63h116.93v10.63h15.945v-10.63h5.315v10.63h10.63v10.63h-10.63v10.63h10.63v10.63h-10.63v10.63h-5.315v-10.63h-15.94v10.63h-10.63v-10.63h-10.63v10.63h-10.63v-10.63h-10.63v10.63h-10.63v-10.63h-10.63v10.63h-10.63v-10.63h-10.63v10.63h-10.63v-10.63h-10.63v10.63h-10.63v-10.63h-10.63v10.63h-10.631v-10.63h-10.63v10.63h-10.629v-10.63h-10.63v10.63h-10.63v-10.63h-10.63v10.63h-10.63v-10.63h-15.945v10.63h-5.315v-10.63h-10.63v-10.63h10.63v-10.63h-10.63v-10.63h10.63z" stroke="#000" stroke-width="0.09" fill="none"/></g><g transform="translate(447.7 75.65)"><title>Right</title><path d="m10.63 0h5.315v10.63h15.945v-10.63h180.71v10.63h10.63v-10.63h10.63v10.63h15.945v-10.63h5.315v10.63h10.63v10.63h-10.63v10.63h10.63v10.63h-10.63v10.63h-5.315v-10.63h-15.94v10.63h-10.63v-10.63h-10.63v10.63h-10.63v-10.63h-10.63v10.63h-10.63v-10.63h-10.63v10.63h-10.63v-10.63h-10.63v10.63h-10.63v-10.63h-10.63v10.63h-10.63v-10.63h-10.63v10.63h-10.631v-10.63h-10.63v10.63h-10.629v-10.63h-10.63v10.63h-10.63v-10.63h-10.63v10.63h-10.63v-10.63h-15.945v10.63h-5.315v-10.63h-10.63v-10.63h10.63v-10.63h-10.63v-10.63h10.63z" stroke="#000" stroke-width="0.09" fill="none"/></g><g transform="translate(22.5 75.65)"><title>Bottom</title><path d="m10.63 10.63h10.467v-10.63h47.997v10.63h10.63v-10.63h10.63v10.63h10.626v-10.63h10.63v10.63h10.63v-10.63h53.15v10.63h10.63v-10.63h13.287v10.63h2.6575v5.315h10.63v15.945h-10.63v10.63h10.63v10.63h-10.63v10.63h10.63v10.63h-10.63v10.63h10.63v10.63h-10.63v10.63h10.63v10.63h-10.63v10.63h10.63v10.63h-10.63v10.63h10.63v10.63h-10.63v10.63h10.63v10.63h-10.63v10.63h10.63v10.63h-10.63v10.63h10.63v10.63h-10.63v10.63h10.63v15.945h-10.63v5.315h-2.6575v10.63h-13.287v-10.63h-10.63v10.63h-10.63v-10.63h-10.63v10.63h-10.63v-10.63h-10.63v10.63h-10.63v-10.63h-10.63v10.63h-10.63v-10.63h-10.626v10.63h-10.63v-10.63h-10.63v10.63h-10.63v-10.63h-10.63v10.63h-10.63v-10.63h-10.63v10.63h-13.287v-10.63h-2.657v-5.315h-10.63v-15.94h10.63v-10.63h-10.63v-10.63h10.63v-10.63h-10.63v-10.63h10.63v-10.63h-10.63v-10.63h10.63v-10.63h-10.63v-10.63h10.63v-10.63h-10.63v-10.63h10.63v-10.63h-10.63v-10.63h10.63v-10.631h-10.63v-10.63h10.63v-10.629h-10.63v-10.63h10.63v-10.63h-10.63v-10.63h10.63v-10.63h-10.63v-15.945h10.63z" stroke="#000" stroke-width="0.09" fill="none"/></g></g><path d="m335.81 80.693v11.338h-73.7v5.67h-11.34v17.009h11.34v11.34h-11.34v11.34h11.34v11.33h-11.34v11.34h11.34v11.34h-11.34v11.34h11.34v11.34h-11.34v11.34h46.78v134.06h-35.44v-9.34h-11.34v17.01h11.34v5.67h2.84v11.34h14.17v-11.34h11.34v11.34h11.33v-11.34h11.34v11.34h11.34v-11.34h11.34v11.34h11.34v-73.06h56.69v73.06h11.34v-11.34h11.34v11.34h11.34v-11.34h11.34v11.34h14.17v-11.34h2.84v-5.67h11.33v-17.01h-14.17v9.34h-31.26v-131.87h-52.03v-23.63h42.48v-46.59h54.98v-11.34h-11.33v-11.34h11.33v-17.009h-11.33v-5.67h-2.84v-11.338h-14.17v11.338h-79.37v-11.338h-11.34v11.338h-11.34v-11.338h-11.34zm-15.31 33.197h26.46v10.1h-16.64v11.65h33.69v-21.75h9.82v53.33h-9.82v-21.76h-33.69v11.66h16.64v10.1h-16.64-9.82v-53.33z" transform="scale(.93750)" stroke-width=".096"/></g></svg>
