<svg stroke-linejoin="round" xmlns="http://www.w3.org/2000/svg" height="90mm" width="160mm" version="1.1" stroke-width="28.222" viewBox="0 0 16000 9000"><path d="m8e3 8999h-8e3v-8999h15999v8999h-7999z" fill="#fff"/><g stroke-linejoin="round" fill="none"><g stroke="#b3b3b3"><path d="m8935 7179h-6541v-5702h13082v5702h-6541z"/><path d="m15476 7178h-13082"/><path d="m15476 6037h-13082"/><path d="m15476 4896h-13082"/><path d="m15476 3757h-13082"/><path d="m15476 2616h-13082"/><path d="m15476 1476h-13082"/><path d="m2394 7328v-150"/><path d="m2394 7328v-150"/><path d="m3211 7328v-150"/><path d="m3211 7328v-150"/><path d="m4029 7328v-150"/><path d="m4029 7328v-150"/><path d="m4847 7328v-150"/><path d="m4847 7328v-150"/><path d="m5664 7328v-150"/><path d="m5664 7328v-150"/><path d="m6482 7328v-150"/><path d="m6482 7328v-150"/><path d="m7300 7328v-150"/><path d="m7300 7328v-150"/><path d="m8116 7328v-150"/><path d="m8116 7328v-150"/><path d="m8934 7328v-150"/><path d="m8934 7328v-150"/><path d="m9752 7328v-150"/><path d="m9752 7328v-150"/><path d="m10569 7328v-150"/><path d="m10569 7328v-150"/><path d="m11387 7328v-150"/><path d="m11387 7328v-150"/><path d="m12205 7328v-150"/><path d="m12205 7328v-150"/><path d="m13022 7328v-150"/><path d="m13022 7328v-150"/><path d="m13840 7328v-150"/><path d="m13840 7328v-150"/><path d="m14658 7328v-150"/><path d="m14658 7328v-150"/><path d="m15476 7328v-150"/><path d="m15476 7328v-150"/><path d="m2394 7178h13082"/><path d="m2244 7178h150"/><path d="m2244 7178h150"/><path d="m2244 6037h150"/><path d="m2244 6037h150"/><path d="m2244 4896h150"/><path d="m2244 4896h150"/><path d="m2244 3757h150"/><path d="m2244 3757h150"/><path d="m2244 2616h150"/><path d="m2244 2616h150"/><path d="m2244 1476h150"/><path d="m2244 1476h150"/><path d="m2394 7178v-5702"/></g><path stroke="#ff420e" stroke-width="80" d="m2802 2236l409 2399 409 743 409 355v-5l409 213 409 135 408 116 409 74 409 28 409 30 409 23 409 36 408 26 408 26v-1 2l409 30 409 20 409 27v2l409 9 409-8 408 1v-4 6l409 1 409-1 409 1 409 2 409-1 408-5 409-8v9l409-6v5h409v-2l409 2v-4 4h409v-12l409 10"/></g><path d="m2677 2111v250h250v-250h-250z" fill="#ff420e"/><path stroke-linejoin="round" stroke="#ff420e" d="m2677 2111v250h250v-250h-250z" fill="none"/><path d="m3086 4510v250h250v-250h-250z" fill="#ff420e"/><path stroke-linejoin="round" stroke="#ff420e" d="m3086 4510v250h250v-250h-250z" fill="none"/><path d="m3495 5253v250h250v-250h-250z" fill="#ff420e"/><path stroke-linejoin="round" stroke="#ff420e" d="m3495 5253v250h250v-250h-250z" fill="none"/><path d="m3904 5608v250h250v-250h-250z" fill="#ff420e"/><path stroke-linejoin="round" stroke="#ff420e" d="m3904 5608v250h250v-250h-250z" fill="none"/><path d="m3904 5603v250h250v-250h-250z" fill="#ff420e"/><path stroke-linejoin="round" stroke="#ff420e" d="m3904 5603v250h250v-250h-250z" fill="none"/><path d="m4313 5816v250h250v-250h-250z" fill="#ff420e"/><path stroke-linejoin="round" stroke="#ff420e" d="m4313 5816v250h250v-250h-250z" fill="none"/><path d="m4722 5951v250h250v-250h-250z" fill="#ff420e"/><path stroke-linejoin="round" stroke="#ff420e" d="m4722 5951v250h250v-250h-250z" fill="none"/><path d="m5130 6067v250h250v-250h-250z" fill="#ff420e"/><path stroke-linejoin="round" stroke="#ff420e" d="m5130 6067v250h250v-250h-250z" fill="none"/><path d="m5539 6141v250h250v-250h-250z" fill="#ff420e"/><path stroke-linejoin="round" stroke="#ff420e" d="m5539 6141v250h250v-250h-250z" fill="none"/><path d="m5948 6169v250h250v-250h-250z" fill="#ff420e"/><path stroke-linejoin="round" stroke="#ff420e" d="m5948 6169v250h250v-250h-250z" fill="none"/><path d="m6357 6199v250h250v-250h-250z" fill="#ff420e"/><path stroke-linejoin="round" stroke="#ff420e" d="m6357 6199v250h250v-250h-250z" fill="none"/><path d="m6766 6222v250h250v-250h-250z" fill="#ff420e"/><path stroke-linejoin="round" stroke="#ff420e" d="m6766 6222v250h250v-250h-250z" fill="none"/><path d="m7175 6258v250h250v-250h-250z" fill="#ff420e"/><path stroke-linejoin="round" stroke="#ff420e" d="m7175 6258v250h250v-250h-250z" fill="none"/><path d="m7583 6284v250h250v-250h-250z" fill="#ff420e"/><path stroke-linejoin="round" stroke="#ff420e" d="m7583 6284v250h250v-250h-250z" fill="none"/><path d="m7992 6310v250h249v-250h-249z" fill="#ff420e"/><path stroke-linejoin="round" stroke="#ff420e" d="m7992 6310v250h249v-250h-249z" fill="none"/><path d="m7992 6309v250h249v-250h-249z" fill="#ff420e"/><path stroke-linejoin="round" stroke="#ff420e" d="m7992 6309v250h249v-250h-249z" fill="none"/><path d="m7992 6311v250h249v-250h-249z" fill="#ff420e"/><path stroke-linejoin="round" stroke="#ff420e" d="m7992 6311v250h249v-250h-249z" fill="none"/><path d="m8400 6341v250h250v-250h-250z" fill="#ff420e"/><path stroke-linejoin="round" stroke="#ff420e" d="m8400 6341v250h250v-250h-250z" fill="none"/><path d="m8809 6361v250h250v-250h-250z" fill="#ff420e"/><path stroke-linejoin="round" stroke="#ff420e" d="m8809 6361v250h250v-250h-250z" fill="none"/><path d="m9218 6388v250h250v-250h-250z" fill="#ff420e"/><path stroke-linejoin="round" stroke="#ff420e" d="m9218 6388v250h250v-250h-250z" fill="none"/><path d="m9218 6390v250h250v-250h-250z" fill="#ff420e"/><path stroke-linejoin="round" stroke="#ff420e" d="m9218 6390v250h250v-250h-250z" fill="none"/><path d="m9627 6399v250h250v-250h-250z" fill="#ff420e"/><path stroke-linejoin="round" stroke="#ff420e" d="m9627 6399v250h250v-250h-250z" fill="none"/><path d="m10036 6391v250h250v-250h-250z" fill="#ff420e"/><path stroke-linejoin="round" stroke="#ff420e" d="m10036 6391v250h250v-250h-250z" fill="none"/><path d="m10444 6392v250h250v-250h-250z" fill="#ff420e"/><path stroke-linejoin="round" stroke="#ff420e" d="m10444 6392v250h250v-250h-250z" fill="none"/><path d="m10444 6388v250h250v-250h-250z" fill="#ff420e"/><path stroke-linejoin="round" stroke="#ff420e" d="m10444 6388v250h250v-250h-250z" fill="none"/><path d="m10444 6394v250h250v-250h-250z" fill="#ff420e"/><path stroke-linejoin="round" stroke="#ff420e" d="m10444 6394v250h250v-250h-250z" fill="none"/><path d="m10853 6395v250h250v-250h-250z" fill="#ff420e"/><path stroke-linejoin="round" stroke="#ff420e" d="m10853 6395v250h250v-250h-250z" fill="none"/><path d="m11262 6394v250h250v-250h-250z" fill="#ff420e"/><path stroke-linejoin="round" stroke="#ff420e" d="m11262 6394v250h250v-250h-250z" fill="none"/><path d="m11671 6395v250h250v-250h-250z" fill="#ff420e"/><path stroke-linejoin="round" stroke="#ff420e" d="m11671 6395v250h250v-250h-250z" fill="none"/><path d="m12080 6397v250h250v-250h-250z" fill="#ff420e"/><path stroke-linejoin="round" stroke="#ff420e" d="m12080 6397v250h250v-250h-250z" fill="none"/><path d="m12489 6396v250h250v-250h-250z" fill="#ff420e"/><path stroke-linejoin="round" stroke="#ff420e" d="m12489 6396v250h250v-250h-250z" fill="none"/><path d="m12897 6391v250h250v-250h-250z" fill="#ff420e"/><path stroke-linejoin="round" stroke="#ff420e" d="m12897 6391v250h250v-250h-250z" fill="none"/><path d="m13306 6383v250h250v-250h-250z" fill="#ff420e"/><path stroke-linejoin="round" stroke="#ff420e" d="m13306 6383v250h250v-250h-250z" fill="none"/><path d="m13306 6392v250h250v-250h-250z" fill="#ff420e"/><path stroke-linejoin="round" stroke="#ff420e" d="m13306 6392v250h250v-250h-250z" fill="none"/><path d="m13715 6386v250h250v-250h-250z" fill="#ff420e"/><path stroke-linejoin="round" stroke="#ff420e" d="m13715 6386v250h250v-250h-250z" fill="none"/><path d="m13715 6391v250h250v-250h-250z" fill="#ff420e"/><path stroke-linejoin="round" stroke="#ff420e" d="m13715 6391v250h250v-250h-250z" fill="none"/><path d="m14124 6391v250h250v-250h-250z" fill="#ff420e"/><path stroke-linejoin="round" stroke="#ff420e" d="m14124 6391v250h250v-250h-250z" fill="none"/><path d="m14124 6389v250h250v-250h-250z" fill="#ff420e"/><path stroke-linejoin="round" stroke="#ff420e" d="m14124 6389v250h250v-250h-250z" fill="none"/><path d="m14533 6391v250h250v-250h-250z" fill="#ff420e"/><path stroke-linejoin="round" stroke="#ff420e" d="m14533 6391v250h250v-250h-250z" fill="none"/><path d="m14533 6387v250h250v-250h-250z" fill="#ff420e"/><path stroke-linejoin="round" stroke="#ff420e" d="m14533 6387v250h250v-250h-250z" fill="none"/><path d="m14533 6391v250h250v-250h-250z" fill="#ff420e"/><path stroke-linejoin="round" stroke="#ff420e" d="m14533 6391v250h250v-250h-250z" fill="none"/><path d="m14942 6391v250h250v-250h-250z" fill="#ff420e"/><path stroke-linejoin="round" stroke="#ff420e" d="m14942 6391v250h250v-250h-250z" fill="none"/><path d="m14942 6379v250h250v-250h-250z" fill="#ff420e"/><path stroke-linejoin="round" stroke="#ff420e" d="m14942 6379v250h250v-250h-250z" fill="none"/><path d="m15351 6389v250h250v-250h-250z" fill="#ff420e"/><path stroke-linejoin="round" stroke="#ff420e" d="m15351 6389v250h250v-250h-250z" fill="none"/><path d="m15351 6389v250h250v-250h-250z" fill="#ff420e"/><path stroke-linejoin="round" stroke="#ff420e" d="m15351 6389v250h250v-250h-250z" fill="none"/><text class="TextShape"><tspan font-weight="400" font-size="353px" font-family="Liberation Sans, sans-serif" class="TextParagraph"><tspan y="7755" x="2293" class="TextPosition"><tspan fill="rgb(0,0,0)">0</tspan></tspan></tspan></text><text class="TextShape"><tspan font-weight="400" font-size="353px" font-family="Liberation Sans, sans-serif" class="TextParagraph"><tspan y="7755" x="3110" class="TextPosition"><tspan fill="rgb(0,0,0)">2</tspan></tspan></tspan></text><text class="TextShape"><tspan font-weight="400" font-size="353px" font-family="Liberation Sans, sans-serif" class="TextParagraph"><tspan y="7755" x="3928" class="TextPosition"><tspan fill="rgb(0,0,0)">4</tspan></tspan></tspan></text><text class="TextShape"><tspan font-weight="400" font-size="353px" font-family="Liberation Sans, sans-serif" class="TextParagraph"><tspan y="7755" x="4746" class="TextPosition"><tspan fill="rgb(0,0,0)">6</tspan></tspan></tspan></text><text class="TextShape"><tspan font-weight="400" font-size="353px" font-family="Liberation Sans, sans-serif" class="TextParagraph"><tspan y="7755" x="5563" class="TextPosition"><tspan fill="rgb(0,0,0)">8</tspan></tspan></tspan></text><text class="TextShape"><tspan font-weight="400" font-size="353px" font-family="Liberation Sans, sans-serif" class="TextParagraph"><tspan y="7755" x="6281" class="TextPosition"><tspan fill="rgb(0,0,0)">10</tspan></tspan></tspan></text><text class="TextShape"><tspan font-weight="400" font-size="353px" font-family="Liberation Sans, sans-serif" class="TextParagraph"><tspan y="7755" x="7099" class="TextPosition"><tspan fill="rgb(0,0,0)">12</tspan></tspan></tspan></text><text class="TextShape"><tspan font-weight="400" font-size="353px" font-family="Liberation Sans, sans-serif" class="TextParagraph"><tspan y="7755" x="7916" class="TextPosition"><tspan fill="rgb(0,0,0)">14</tspan></tspan></tspan></text><text class="TextShape"><tspan font-weight="400" font-size="353px" font-family="Liberation Sans, sans-serif" class="TextParagraph"><tspan y="7755" x="8734" class="TextPosition"><tspan fill="rgb(0,0,0)">16</tspan></tspan></tspan></text><text class="TextShape"><tspan font-weight="400" font-size="353px" font-family="Liberation Sans, sans-serif" class="TextParagraph"><tspan y="7755" x="9552" class="TextPosition"><tspan fill="rgb(0,0,0)">18</tspan></tspan></tspan></text><text class="TextShape"><tspan font-weight="400" font-size="353px" font-family="Liberation Sans, sans-serif" class="TextParagraph"><tspan y="7755" x="10369" class="TextPosition"><tspan fill="rgb(0,0,0)">20</tspan></tspan></tspan></text><text class="TextShape"><tspan font-weight="400" font-size="353px" font-family="Liberation Sans, sans-serif" class="TextParagraph"><tspan y="7755" x="11187" class="TextPosition"><tspan fill="rgb(0,0,0)">22</tspan></tspan></tspan></text><text class="TextShape"><tspan font-weight="400" font-size="353px" font-family="Liberation Sans, sans-serif" class="TextParagraph"><tspan y="7755" x="12005" class="TextPosition"><tspan fill="rgb(0,0,0)">24</tspan></tspan></tspan></text><text class="TextShape"><tspan font-weight="400" font-size="353px" font-family="Liberation Sans, sans-serif" class="TextParagraph"><tspan y="7755" x="12822" class="TextPosition"><tspan fill="rgb(0,0,0)">26</tspan></tspan></tspan></text><text class="TextShape"><tspan font-weight="400" font-size="353px" font-family="Liberation Sans, sans-serif" class="TextParagraph"><tspan y="7755" x="13640" class="TextPosition"><tspan fill="rgb(0,0,0)">28</tspan></tspan></tspan></text><text class="TextShape"><tspan font-weight="400" font-size="353px" font-family="Liberation Sans, sans-serif" class="TextParagraph"><tspan y="7755" x="14458" class="TextPosition"><tspan fill="rgb(0,0,0)">30</tspan></tspan></tspan></text><text class="TextShape"><tspan font-weight="400" font-size="353px" font-family="Liberation Sans, sans-serif" class="TextParagraph"><tspan y="7755" x="15276" class="TextPosition"><tspan fill="rgb(0,0,0)">32</tspan></tspan></tspan></text><text class="TextShape"><tspan font-weight="400" font-size="353px" font-family="Liberation Sans, sans-serif" class="TextParagraph"><tspan y="7305" x="1943" class="TextPosition"><tspan fill="rgb(0,0,0)">0</tspan></tspan></tspan></text><text class="TextShape"><tspan font-weight="400" font-size="353px" font-family="Liberation Sans, sans-serif" class="TextParagraph"><tspan y="6164" x="1540" class="TextPosition"><tspan fill="rgb(0,0,0)">500</tspan></tspan></tspan></text><text class="TextShape"><tspan font-weight="400" font-size="353px" font-family="Liberation Sans, sans-serif" class="TextParagraph"><tspan y="5023" x="1339" class="TextPosition"><tspan fill="rgb(0,0,0)">1000</tspan></tspan></tspan></text><text class="TextShape"><tspan font-weight="400" font-size="353px" font-family="Liberation Sans, sans-serif" class="TextParagraph"><tspan y="3883" x="1339" class="TextPosition"><tspan fill="rgb(0,0,0)">1500</tspan></tspan></tspan></text><text class="TextShape"><tspan font-weight="400" font-size="353px" font-family="Liberation Sans, sans-serif" class="TextParagraph"><tspan y="2742" x="1339" class="TextPosition"><tspan fill="rgb(0,0,0)">2000</tspan></tspan></tspan></text><text class="TextShape"><tspan font-weight="400" font-size="353px" font-family="Liberation Sans, sans-serif" class="TextParagraph"><tspan y="1602" x="1339" class="TextPosition"><tspan fill="rgb(0,0,0)">2500</tspan></tspan></tspan></text><text class="TextShape"><tspan font-weight="400" font-size="459px" font-family="Liberation Sans, sans-serif" class="TextParagraph"><tspan y="856" x="1876" class="TextPosition"><tspan fill="rgb(0,0,0)">Compressing x86_64 Binaries with UPX on a Sun Fire T2000</tspan></tspan></tspan></text><text class="TextShape"><tspan font-weight="400" font-size="318px" font-family="Liberation Sans, sans-serif" class="TextParagraph"><tspan y="8410" x="7943" class="TextPosition"><tspan fill="rgb(0,0,0)"># Cores</tspan></tspan></tspan></text><text class="TextShape" transform="translate(848,5143) rotate(-90) translate(-848,-5143)"><tspan font-weight="400" font-size="318px" font-family="Liberation Sans, sans-serif" class="TextParagraph"><tspan y="5143" x="848" class="TextPosition"><tspan fill="rgb(0,0,0)">Time (s)</tspan></tspan></tspan></text></svg>
