<svg stroke-linejoin="round" xmlns="http://www.w3.org/2000/svg" height="90mm" width="160mm" stroke-width="28.222" viewBox="0 0 16000 9000"><path d="M8000 8999H0V0h15999v8999H8000z" fill="#fff"/><g fill="none"><path d="M8935 7179H2394V1477h13082v5702H8935zm6541-1H2394m13082-1141H2394m13082-1141H2394m13082-1139H2394m13082-1141H2394m13082-1140H2394m0 5852v-150m0 150v-150m817 150v-150m0 150v-150m818 150v-150m0 150v-150m818 150v-150m0 150v-150m817 150v-150m0 150v-150m818 150v-150m0 150v-150m818 150v-150m0 150v-150m816 150v-150m0 150v-150m818 150v-150m0 150v-150m818 150v-150m0 150v-150m817 150v-150m0 150v-150m818 150v-150m0 150v-150m818 150v-150m0 150v-150m817 150v-150m0 150v-150m818 150v-150m0 150v-150m818 150v-150m0 150v-150m818 150v-150m0 150v-150m-13082 0h13082m-13232 0h150m-150 0h150m-150-1141h150m-150 0h150m-150-1141h150m-150 0h150m-150-1139h150m-150 0h150m-150-1141h150m-150 0h150m-150-1140h150m-150 0h150m0 5702V1476" stroke="#b3b3b3"/><path stroke="#ff420e" stroke-width="80" d="M2802 2236l409 2399 409 743 409 355v-5l409 213 409 135 408 116 409 74 409 28 409 30 409 23 409 36 408 26 408 26v-1 2l409 30 409 20 409 27v2l409 9 409-8 408 1v-4 6l409 1 409-1 409 1 409 2 409-1 408-5 409-8v9l409-6v5h409v-2l409 2v-4 4h409v-12l409 10"/></g><path d="M2677 2111v250h250v-250h-250z" fill="#ff420e"/><path stroke="#ff420e" d="M2677 2111v250h250v-250h-250z" fill="none"/><path d="M3086 4510v250h250v-250h-250z" fill="#ff420e"/><path stroke="#ff420e" d="M3086 4510v250h250v-250h-250z" fill="none"/><path d="M3495 5253v250h250v-250h-250z" fill="#ff420e"/><path stroke="#ff420e" d="M3495 5253v250h250v-250h-250z" fill="none"/><path d="M3904 5608v250h250v-250h-250z" fill="#ff420e"/><path stroke="#ff420e" d="M3904 5608v250h250v-250h-250z" fill="none"/><path d="M3904 5603v250h250v-250h-250z" fill="#ff420e"/><path stroke="#ff420e" d="M3904 5603v250h250v-250h-250z" fill="none"/><path d="M4313 5816v250h250v-250h-250z" fill="#ff420e"/><path stroke="#ff420e" d="M4313 5816v250h250v-250h-250z" fill="none"/><path d="M4722 5951v250h250v-250h-250z" fill="#ff420e"/><path stroke="#ff420e" d="M4722 5951v250h250v-250h-250z" fill="none"/><path d="M5130 6067v250h250v-250h-250z" fill="#ff420e"/><path stroke="#ff420e" d="M5130 6067v250h250v-250h-250z" fill="none"/><path d="M5539 6141v250h250v-250h-250z" fill="#ff420e"/><path stroke="#ff420e" d="M5539 6141v250h250v-250h-250z" fill="none"/><path d="M5948 6169v250h250v-250h-250z" fill="#ff420e"/><path stroke="#ff420e" d="M5948 6169v250h250v-250h-250z" fill="none"/><path d="M6357 6199v250h250v-250h-250z" fill="#ff420e"/><path stroke="#ff420e" d="M6357 6199v250h250v-250h-250z" fill="none"/><path d="M6766 6222v250h250v-250h-250z" fill="#ff420e"/><path stroke="#ff420e" d="M6766 6222v250h250v-250h-250z" fill="none"/><path d="M7175 6258v250h250v-250h-250z" fill="#ff420e"/><path stroke="#ff420e" d="M7175 6258v250h250v-250h-250z" fill="none"/><path d="M7583 6284v250h250v-250h-250z" fill="#ff420e"/><path stroke="#ff420e" d="M7583 6284v250h250v-250h-250z" fill="none"/><path d="M7992 6310v250h249v-250h-249z" fill="#ff420e"/><path stroke="#ff420e" d="M7992 6310v250h249v-250h-249z" fill="none"/><path d="M7992 6309v250h249v-250h-249z" fill="#ff420e"/><path stroke="#ff420e" d="M7992 6309v250h249v-250h-249z" fill="none"/><path d="M7992 6311v250h249v-250h-249z" fill="#ff420e"/><path stroke="#ff420e" d="M7992 6311v250h249v-250h-249z" fill="none"/><path d="M8400 6341v250h250v-250h-250z" fill="#ff420e"/><path stroke="#ff420e" d="M8400 6341v250h250v-250h-250z" fill="none"/><path d="M8809 6361v250h250v-250h-250z" fill="#ff420e"/><path stroke="#ff420e" d="M8809 6361v250h250v-250h-250z" fill="none"/><path d="M9218 6388v250h250v-250h-250z" fill="#ff420e"/><path stroke="#ff420e" d="M9218 6388v250h250v-250h-250z" fill="none"/><path d="M9218 6390v250h250v-250h-250z" fill="#ff420e"/><path stroke="#ff420e" d="M9218 6390v250h250v-250h-250z" fill="none"/><path d="M9627 6399v250h250v-250h-250z" fill="#ff420e"/><path stroke="#ff420e" d="M9627 6399v250h250v-250h-250z" fill="none"/><path d="M10036 6391v250h250v-250h-250z" fill="#ff420e"/><path stroke="#ff420e" d="M10036 6391v250h250v-250h-250z" fill="none"/><path d="M10444 6392v250h250v-250h-250z" fill="#ff420e"/><path stroke="#ff420e" d="M10444 6392v250h250v-250h-250z" fill="none"/><path d="M10444 6388v250h250v-250h-250z" fill="#ff420e"/><path stroke="#ff420e" d="M10444 6388v250h250v-250h-250z" fill="none"/><path d="M10444 6394v250h250v-250h-250z" fill="#ff420e"/><path stroke="#ff420e" d="M10444 6394v250h250v-250h-250z" fill="none"/><path d="M10853 6395v250h250v-250h-250z" fill="#ff420e"/><path stroke="#ff420e" d="M10853 6395v250h250v-250h-250z" fill="none"/><path d="M11262 6394v250h250v-250h-250z" fill="#ff420e"/><path stroke="#ff420e" d="M11262 6394v250h250v-250h-250z" fill="none"/><path d="M11671 6395v250h250v-250h-250z" fill="#ff420e"/><path stroke="#ff420e" d="M11671 6395v250h250v-250h-250z" fill="none"/><path d="M12080 6397v250h250v-250h-250z" fill="#ff420e"/><path stroke="#ff420e" d="M12080 6397v250h250v-250h-250z" fill="none"/><path d="M12489 6396v250h250v-250h-250z" fill="#ff420e"/><path stroke="#ff420e" d="M12489 6396v250h250v-250h-250z" fill="none"/><path d="M12897 6391v250h250v-250h-250z" fill="#ff420e"/><path stroke="#ff420e" d="M12897 6391v250h250v-250h-250z" fill="none"/><path d="M13306 6383v250h250v-250h-250z" fill="#ff420e"/><path stroke="#ff420e" d="M13306 6383v250h250v-250h-250z" fill="none"/><path d="M13306 6392v250h250v-250h-250z" fill="#ff420e"/><path stroke="#ff420e" d="M13306 6392v250h250v-250h-250z" fill="none"/><path d="M13715 6386v250h250v-250h-250z" fill="#ff420e"/><path stroke="#ff420e" d="M13715 6386v250h250v-250h-250z" fill="none"/><path d="M13715 6391v250h250v-250h-250z" fill="#ff420e"/><path stroke="#ff420e" d="M13715 6391v250h250v-250h-250z" fill="none"/><path d="M14124 6391v250h250v-250h-250z" fill="#ff420e"/><path stroke="#ff420e" d="M14124 6391v250h250v-250h-250z" fill="none"/><path d="M14124 6389v250h250v-250h-250z" fill="#ff420e"/><path stroke="#ff420e" d="M14124 6389v250h250v-250h-250z" fill="none"/><path d="M14533 6391v250h250v-250h-250z" fill="#ff420e"/><path stroke="#ff420e" d="M14533 6391v250h250v-250h-250z" fill="none"/><path d="M14533 6387v250h250v-250h-250z" fill="#ff420e"/><path stroke="#ff420e" d="M14533 6387v250h250v-250h-250z" fill="none"/><path d="M14533 6391v250h250v-250h-250z" fill="#ff420e"/><path stroke="#ff420e" d="M14533 6391v250h250v-250h-250z" fill="none"/><path d="M14942 6391v250h250v-250h-250z" fill="#ff420e"/><path stroke="#ff420e" d="M14942 6391v250h250v-250h-250z" fill="none"/><path d="M14942 6379v250h250v-250h-250z" fill="#ff420e"/><path stroke="#ff420e" d="M14942 6379v250h250v-250h-250z" fill="none"/><path d="M15351 6389v250h250v-250h-250z" fill="#ff420e"/><path stroke="#ff420e" d="M15351 6389v250h250v-250h-250z" fill="none"/><path d="M15351 6389v250h250v-250h-250z" fill="#ff420e"/><path stroke="#ff420e" d="M15351 6389v250h250v-250h-250z" fill="none"/><text class="TextShape"><tspan font-weight="400" font-size="353px" font-family="Liberation Sans, sans-serif" class="TextParagraph"><tspan y="7755" x="2293" class="TextPosition"><tspan>0</tspan></tspan></tspan></text><text class="TextShape"><tspan font-weight="400" font-size="353px" font-family="Liberation Sans, sans-serif" class="TextParagraph"><tspan y="7755" x="3110" class="TextPosition"><tspan>2</tspan></tspan></tspan></text><text class="TextShape"><tspan font-weight="400" font-size="353px" font-family="Liberation Sans, sans-serif" class="TextParagraph"><tspan y="7755" x="3928" class="TextPosition"><tspan>4</tspan></tspan></tspan></text><text class="TextShape"><tspan font-weight="400" font-size="353px" font-family="Liberation Sans, sans-serif" class="TextParagraph"><tspan y="7755" x="4746" class="TextPosition"><tspan>6</tspan></tspan></tspan></text><text class="TextShape"><tspan font-weight="400" font-size="353px" font-family="Liberation Sans, sans-serif" class="TextParagraph"><tspan y="7755" x="5563" class="TextPosition"><tspan>8</tspan></tspan></tspan></text><text class="TextShape"><tspan font-weight="400" font-size="353px" font-family="Liberation Sans, sans-serif" class="TextParagraph"><tspan y="7755" x="6281" class="TextPosition"><tspan>10</tspan></tspan></tspan></text><text class="TextShape"><tspan font-weight="400" font-size="353px" font-family="Liberation Sans, sans-serif" class="TextParagraph"><tspan y="7755" x="7099" class="TextPosition"><tspan>12</tspan></tspan></tspan></text><text class="TextShape"><tspan font-weight="400" font-size="353px" font-family="Liberation Sans, sans-serif" class="TextParagraph"><tspan y="7755" x="7916" class="TextPosition"><tspan>14</tspan></tspan></tspan></text><text class="TextShape"><tspan font-weight="400" font-size="353px" font-family="Liberation Sans, sans-serif" class="TextParagraph"><tspan y="7755" x="8734" class="TextPosition"><tspan>16</tspan></tspan></tspan></text><text class="TextShape"><tspan font-weight="400" font-size="353px" font-family="Liberation Sans, sans-serif" class="TextParagraph"><tspan y="7755" x="9552" class="TextPosition"><tspan>18</tspan></tspan></tspan></text><text class="TextShape"><tspan font-weight="400" font-size="353px" font-family="Liberation Sans, sans-serif" class="TextParagraph"><tspan y="7755" x="10369" class="TextPosition"><tspan>20</tspan></tspan></tspan></text><text class="TextShape"><tspan font-weight="400" font-size="353px" font-family="Liberation Sans, sans-serif" class="TextParagraph"><tspan y="7755" x="11187" class="TextPosition"><tspan>22</tspan></tspan></tspan></text><text class="TextShape"><tspan font-weight="400" font-size="353px" font-family="Liberation Sans, sans-serif" class="TextParagraph"><tspan y="7755" x="12005" class="TextPosition"><tspan>24</tspan></tspan></tspan></text><text class="TextShape"><tspan font-weight="400" font-size="353px" font-family="Liberation Sans, sans-serif" class="TextParagraph"><tspan y="7755" x="12822" class="TextPosition"><tspan>26</tspan></tspan></tspan></text><text class="TextShape"><tspan font-weight="400" font-size="353px" font-family="Liberation Sans, sans-serif" class="TextParagraph"><tspan y="7755" x="13640" class="TextPosition"><tspan>28</tspan></tspan></tspan></text><text class="TextShape"><tspan font-weight="400" font-size="353px" font-family="Liberation Sans, sans-serif" class="TextParagraph"><tspan y="7755" x="14458" class="TextPosition"><tspan>30</tspan></tspan></tspan></text><text class="TextShape"><tspan font-weight="400" font-size="353px" font-family="Liberation Sans, sans-serif" class="TextParagraph"><tspan y="7755" x="15276" class="TextPosition"><tspan>32</tspan></tspan></tspan></text><text class="TextShape"><tspan font-weight="400" font-size="353px" font-family="Liberation Sans, sans-serif" class="TextParagraph"><tspan y="7305" x="1943" class="TextPosition"><tspan>0</tspan></tspan></tspan></text><text class="TextShape"><tspan font-weight="400" font-size="353px" font-family="Liberation Sans, sans-serif" class="TextParagraph"><tspan y="6164" x="1540" class="TextPosition"><tspan>500</tspan></tspan></tspan></text><text class="TextShape"><tspan font-weight="400" font-size="353px" font-family="Liberation Sans, sans-serif" class="TextParagraph"><tspan y="5023" x="1339" class="TextPosition"><tspan>1000</tspan></tspan></tspan></text><text class="TextShape"><tspan font-weight="400" font-size="353px" font-family="Liberation Sans, sans-serif" class="TextParagraph"><tspan y="3883" x="1339" class="TextPosition"><tspan>1500</tspan></tspan></tspan></text><text class="TextShape"><tspan font-weight="400" font-size="353px" font-family="Liberation Sans, sans-serif" class="TextParagraph"><tspan y="2742" x="1339" class="TextPosition"><tspan>2000</tspan></tspan></tspan></text><text class="TextShape"><tspan font-weight="400" font-size="353px" font-family="Liberation Sans, sans-serif" class="TextParagraph"><tspan y="1602" x="1339" class="TextPosition"><tspan>2500</tspan></tspan></tspan></text><text class="TextShape"><tspan font-weight="400" font-size="459px" font-family="Liberation Sans, sans-serif" class="TextParagraph"><tspan y="856" x="1876" class="TextPosition"><tspan>Compressing x86_64 Binaries with UPX on a Sun Fire T2000</tspan></tspan></tspan></text><text class="TextShape"><tspan font-weight="400" font-size="318px" font-family="Liberation Sans, sans-serif" class="TextParagraph"><tspan y="8410" x="7943" class="TextPosition"><tspan># Cores</tspan></tspan></tspan></text><text class="TextShape" transform="rotate(-90 848 5143)"><tspan font-weight="400" font-size="318px" font-family="Liberation Sans, sans-serif" class="TextParagraph"><tspan y="5143" x="848" class="TextPosition"><tspan>Time (s)</tspan></tspan></tspan></text></svg>