<svg stroke-linejoin="round" xmlns="http://www.w3.org/2000/svg" height="90mm" width="160mm" version="1.1" stroke-width="28.222" viewBox="0 0 16000 9000"><path d="m8e3 8999h-8e3v-8999h15999v8999h-7999z" fill="#fff"/><g stroke-linejoin="round" fill="none"><g stroke="#b3b3b3"><path d="m8734 7179h-6541v-5701h13082v5701h-6541z"/><path d="m15275 7178h-13082"/><path d="m15275 6227h-13082"/><path d="m15275 5277h-13082"/><path d="m15275 4328h-13082"/><path d="m15275 3377h-13082"/><path d="m15275 2427h-13082"/><path d="m15275 1477h-13082"/><path d="m2193 7328v-150"/><path d="m2193 7328v-150"/><path d="m3010 7328v-150"/><path d="m3010 7328v-150"/><path d="m3828 7328v-150"/><path d="m3828 7328v-150"/><path d="m4646 7328v-150"/><path d="m4646 7328v-150"/><path d="m5463 7328v-150"/><path d="m5463 7328v-150"/><path d="m6281 7328v-150"/><path d="m6281 7328v-150"/><path d="m7099 7328v-150"/><path d="m7099 7328v-150"/><path d="m7916 7328v-150"/><path d="m7916 7328v-150"/><path d="m8733 7328v-150"/><path d="m8733 7328v-150"/><path d="m9551 7328v-150"/><path d="m9551 7328v-150"/><path d="m10368 7328v-150"/><path d="m10368 7328v-150"/><path d="m11186 7328v-150"/><path d="m11186 7328v-150"/><path d="m12004 7328v-150"/><path d="m12004 7328v-150"/><path d="m12821 7328v-150"/><path d="m12821 7328v-150"/><path d="m13639 7328v-150"/><path d="m13639 7328v-150"/><path d="m14457 7328v-150"/><path d="m14457 7328v-150"/><path d="m15275 7328v-150"/><path d="m15275 7328v-150"/><path d="m2193 7178h13082"/><path d="m2043 7178h150"/><path d="m2043 7178h150"/><path d="m2043 6227h150"/><path d="m2043 6227h150"/><path d="m2043 5277h150"/><path d="m2043 5277h150"/><path d="m2043 4328h150"/><path d="m2043 4328h150"/><path d="m2043 3377h150"/><path d="m2043 3377h150"/><path d="m2043 2427h150"/><path d="m2043 2427h150"/><path d="m2043 1477h150"/><path d="m2043 1477h150"/><path d="m2193 7178v-5701"/></g><path stroke="#004586" stroke-width="80" d="m2601 2029v93l409 2443v5l409 829v3l409 402 409 243 409 180v-4l408 125 409 88 409 68 409 7 409 45 409 20 408-10v3l409 31 408 51v-4 5l409 3 409 12 409 23 409 32 408-9 409 7v-11l409 13 409-11v3l409 17 409 1v12l408 15 409-28 409-20 409-1 409 51 409-5 409-3v1"/></g><path d="m2476 1904v250h250v-250h-250z" fill="#004586"/><path stroke-linejoin="round" stroke="#004586" d="m2476 1904v250h250v-250h-250z" fill="none"/><path d="m2476 1997v250h250v-250h-250z" fill="#004586"/><path stroke-linejoin="round" stroke="#004586" d="m2476 1997v250h250v-250h-250z" fill="none"/><path d="m2885 4441v249h250v-249h-250z" fill="#004586"/><path stroke-linejoin="round" stroke="#004586" d="m2885 4441v249h250v-249h-250z" fill="none"/><path d="m2885 4446v249h250v-249h-250z" fill="#004586"/><path stroke-linejoin="round" stroke="#004586" d="m2885 4446v249h250v-249h-250z" fill="none"/><path d="m3294 5274v250h250v-250h-250z" fill="#004586"/><path stroke-linejoin="round" stroke="#004586" d="m3294 5274v250h250v-250h-250z" fill="none"/><path d="m3294 5277v250h250v-250h-250z" fill="#004586"/><path stroke-linejoin="round" stroke="#004586" d="m3294 5277v250h250v-250h-250z" fill="none"/><path d="m3703 5679v250h250v-250h-250z" fill="#004586"/><path stroke-linejoin="round" stroke="#004586" d="m3703 5679v250h250v-250h-250z" fill="none"/><path d="m4112 5922v250h250v-250h-250z" fill="#004586"/><path stroke-linejoin="round" stroke="#004586" d="m4112 5922v250h250v-250h-250z" fill="none"/><path d="m4521 6102v250h250v-250h-250z" fill="#004586"/><path stroke-linejoin="round" stroke="#004586" d="m4521 6102v250h250v-250h-250z" fill="none"/><path d="m4521 6098v250h250v-250h-250z" fill="#004586"/><path stroke-linejoin="round" stroke="#004586" d="m4521 6098v250h250v-250h-250z" fill="none"/><path d="m4929 6223v250h250v-250h-250z" fill="#004586"/><path stroke-linejoin="round" stroke="#004586" d="m4929 6223v250h250v-250h-250z" fill="none"/><path d="m5338 6311v250h250v-250h-250z" fill="#004586"/><path stroke-linejoin="round" stroke="#004586" d="m5338 6311v250h250v-250h-250z" fill="none"/><path d="m5747 6379v250h250v-250h-250z" fill="#004586"/><path stroke-linejoin="round" stroke="#004586" d="m5747 6379v250h250v-250h-250z" fill="none"/><path d="m6156 6386v250h250v-250h-250z" fill="#004586"/><path stroke-linejoin="round" stroke="#004586" d="m6156 6386v250h250v-250h-250z" fill="none"/><path d="m6565 6431v250h250v-250h-250z" fill="#004586"/><path stroke-linejoin="round" stroke="#004586" d="m6565 6431v250h250v-250h-250z" fill="none"/><path d="m6974 6451v250h250v-250h-250z" fill="#004586"/><path stroke-linejoin="round" stroke="#004586" d="m6974 6451v250h250v-250h-250z" fill="none"/><path d="m7382 6441v250h250v-250h-250z" fill="#004586"/><path stroke-linejoin="round" stroke="#004586" d="m7382 6441v250h250v-250h-250z" fill="none"/><path d="m7382 6444v250h250v-250h-250z" fill="#004586"/><path stroke-linejoin="round" stroke="#004586" d="m7382 6444v250h250v-250h-250z" fill="none"/><path d="m7791 6475v250h249v-250h-249z" fill="#004586"/><path stroke-linejoin="round" stroke="#004586" d="m7791 6475v250h249v-250h-249z" fill="none"/><path d="m8199 6526v250h250v-250h-250z" fill="#004586"/><path stroke-linejoin="round" stroke="#004586" d="m8199 6526v250h250v-250h-250z" fill="none"/><path d="m8199 6522v250h250v-250h-250z" fill="#004586"/><path stroke-linejoin="round" stroke="#004586" d="m8199 6522v250h250v-250h-250z" fill="none"/><path d="m8199 6527v250h250v-250h-250z" fill="#004586"/><path stroke-linejoin="round" stroke="#004586" d="m8199 6527v250h250v-250h-250z" fill="none"/><path d="m8608 6530v250h250v-250h-250z" fill="#004586"/><path stroke-linejoin="round" stroke="#004586" d="m8608 6530v250h250v-250h-250z" fill="none"/><path d="m9017 6542v250h250v-250h-250z" fill="#004586"/><path stroke-linejoin="round" stroke="#004586" d="m9017 6542v250h250v-250h-250z" fill="none"/><path d="m9426 6565v250h250v-250h-250z" fill="#004586"/><path stroke-linejoin="round" stroke="#004586" d="m9426 6565v250h250v-250h-250z" fill="none"/><path d="m9835 6597v250h250v-250h-250z" fill="#004586"/><path stroke-linejoin="round" stroke="#004586" d="m9835 6597v250h250v-250h-250z" fill="none"/><path d="m10243 6588v250h250v-250h-250z" fill="#004586"/><path stroke-linejoin="round" stroke="#004586" d="m10243 6588v250h250v-250h-250z" fill="none"/><path d="m10652 6595v250h250v-250h-250z" fill="#004586"/><path stroke-linejoin="round" stroke="#004586" d="m10652 6595v250h250v-250h-250z" fill="none"/><path d="m10652 6584v250h250v-250h-250z" fill="#004586"/><path stroke-linejoin="round" stroke="#004586" d="m10652 6584v250h250v-250h-250z" fill="none"/><path d="m11061 6597v250h250v-250h-250z" fill="#004586"/><path stroke-linejoin="round" stroke="#004586" d="m11061 6597v250h250v-250h-250z" fill="none"/><path d="m11470 6586v250h250v-250h-250z" fill="#004586"/><path stroke-linejoin="round" stroke="#004586" d="m11470 6586v250h250v-250h-250z" fill="none"/><path d="m11470 6589v250h250v-250h-250z" fill="#004586"/><path stroke-linejoin="round" stroke="#004586" d="m11470 6589v250h250v-250h-250z" fill="none"/><path d="m11879 6606v250h250v-250h-250z" fill="#004586"/><path stroke-linejoin="round" stroke="#004586" d="m11879 6606v250h250v-250h-250z" fill="none"/><path d="m12288 6607v250h250v-250h-250z" fill="#004586"/><path stroke-linejoin="round" stroke="#004586" d="m12288 6607v250h250v-250h-250z" fill="none"/><path d="m12288 6619v250h250v-250h-250z" fill="#004586"/><path stroke-linejoin="round" stroke="#004586" d="m12288 6619v250h250v-250h-250z" fill="none"/><path d="m12696 6634v250h250v-250h-250z" fill="#004586"/><path stroke-linejoin="round" stroke="#004586" d="m12696 6634v250h250v-250h-250z" fill="none"/><path d="m13105 6606v250h250v-250h-250z" fill="#004586"/><path stroke-linejoin="round" stroke="#004586" d="m13105 6606v250h250v-250h-250z" fill="none"/><path d="m13514 6586v250h250v-250h-250z" fill="#004586"/><path stroke-linejoin="round" stroke="#004586" d="m13514 6586v250h250v-250h-250z" fill="none"/><path d="m13923 6585v250h250v-250h-250z" fill="#004586"/><path stroke-linejoin="round" stroke="#004586" d="m13923 6585v250h250v-250h-250z" fill="none"/><path d="m14332 6636v250h250v-250h-250z" fill="#004586"/><path stroke-linejoin="round" stroke="#004586" d="m14332 6636v250h250v-250h-250z" fill="none"/><path d="m14741 6631v250h250v-250h-250z" fill="#004586"/><path stroke-linejoin="round" stroke="#004586" d="m14741 6631v250h250v-250h-250z" fill="none"/><path d="m15150 6628v250h250v-250h-250z" fill="#004586"/><path stroke-linejoin="round" stroke="#004586" d="m15150 6628v250h250v-250h-250z" fill="none"/><path d="m15150 6629v250h250v-250h-250z" fill="#004586"/><path stroke-linejoin="round" stroke="#004586" d="m15150 6629v250h250v-250h-250z" fill="none"/><text class="TextShape"><tspan font-weight="400" font-size="353px" font-family="FreeSans, sans-serif" class="TextParagraph"><tspan y="7755" x="2092" class="TextPosition"><tspan fill="rgb(0,0,0)">0</tspan></tspan></tspan></text><text class="TextShape"><tspan font-weight="400" font-size="353px" font-family="FreeSans, sans-serif" class="TextParagraph"><tspan y="7755" x="2909" class="TextPosition"><tspan fill="rgb(0,0,0)">2</tspan></tspan></tspan></text><text class="TextShape"><tspan font-weight="400" font-size="353px" font-family="FreeSans, sans-serif" class="TextParagraph"><tspan y="7755" x="3727" class="TextPosition"><tspan fill="rgb(0,0,0)">4</tspan></tspan></tspan></text><text class="TextShape"><tspan font-weight="400" font-size="353px" font-family="FreeSans, sans-serif" class="TextParagraph"><tspan y="7755" x="4545" class="TextPosition"><tspan fill="rgb(0,0,0)">6</tspan></tspan></tspan></text><text class="TextShape"><tspan font-weight="400" font-size="353px" font-family="FreeSans, sans-serif" class="TextParagraph"><tspan y="7755" x="5362" class="TextPosition"><tspan fill="rgb(0,0,0)">8</tspan></tspan></tspan></text><text class="TextShape"><tspan font-weight="400" font-size="353px" font-family="FreeSans, sans-serif" class="TextParagraph"><tspan y="7755" x="6080" class="TextPosition"><tspan fill="rgb(0,0,0)">10</tspan></tspan></tspan></text><text class="TextShape"><tspan font-weight="400" font-size="353px" font-family="FreeSans, sans-serif" class="TextParagraph"><tspan y="7755" x="6898" class="TextPosition"><tspan fill="rgb(0,0,0)">12</tspan></tspan></tspan></text><text class="TextShape"><tspan font-weight="400" font-size="353px" font-family="FreeSans, sans-serif" class="TextParagraph"><tspan y="7755" x="7715" class="TextPosition"><tspan fill="rgb(0,0,0)">14</tspan></tspan></tspan></text><text class="TextShape"><tspan font-weight="400" font-size="353px" font-family="FreeSans, sans-serif" class="TextParagraph"><tspan y="7755" x="8533" class="TextPosition"><tspan fill="rgb(0,0,0)">16</tspan></tspan></tspan></text><text class="TextShape"><tspan font-weight="400" font-size="353px" font-family="FreeSans, sans-serif" class="TextParagraph"><tspan y="7755" x="9351" class="TextPosition"><tspan fill="rgb(0,0,0)">18</tspan></tspan></tspan></text><text class="TextShape"><tspan font-weight="400" font-size="353px" font-family="FreeSans, sans-serif" class="TextParagraph"><tspan y="7755" x="10168" class="TextPosition"><tspan fill="rgb(0,0,0)">20</tspan></tspan></tspan></text><text class="TextShape"><tspan font-weight="400" font-size="353px" font-family="FreeSans, sans-serif" class="TextParagraph"><tspan y="7755" x="10986" class="TextPosition"><tspan fill="rgb(0,0,0)">22</tspan></tspan></tspan></text><text class="TextShape"><tspan font-weight="400" font-size="353px" font-family="FreeSans, sans-serif" class="TextParagraph"><tspan y="7755" x="11804" class="TextPosition"><tspan fill="rgb(0,0,0)">24</tspan></tspan></tspan></text><text class="TextShape"><tspan font-weight="400" font-size="353px" font-family="FreeSans, sans-serif" class="TextParagraph"><tspan y="7755" x="12621" class="TextPosition"><tspan fill="rgb(0,0,0)">26</tspan></tspan></tspan></text><text class="TextShape"><tspan font-weight="400" font-size="353px" font-family="FreeSans, sans-serif" class="TextParagraph"><tspan y="7755" x="13439" class="TextPosition"><tspan fill="rgb(0,0,0)">28</tspan></tspan></tspan></text><text class="TextShape"><tspan font-weight="400" font-size="353px" font-family="FreeSans, sans-serif" class="TextParagraph"><tspan y="7755" x="14257" class="TextPosition"><tspan fill="rgb(0,0,0)">30</tspan></tspan></tspan></text><text class="TextShape"><tspan font-weight="400" font-size="353px" font-family="FreeSans, sans-serif" class="TextParagraph"><tspan y="7755" x="15075" class="TextPosition"><tspan fill="rgb(0,0,0)">32</tspan></tspan></tspan></text><text class="TextShape"><tspan font-weight="400" font-size="353px" font-family="Liberation Sans, sans-serif" class="TextParagraph"><tspan y="7305" x="1742" class="TextPosition"><tspan fill="rgb(0,0,0)">0</tspan></tspan></tspan></text><text class="TextShape"><tspan font-weight="400" font-size="353px" font-family="Liberation Sans, sans-serif" class="TextParagraph"><tspan y="6354" x="1339" class="TextPosition"><tspan fill="rgb(0,0,0)">200</tspan></tspan></tspan></text><text class="TextShape"><tspan font-weight="400" font-size="353px" font-family="Liberation Sans, sans-serif" class="TextParagraph"><tspan y="5404" x="1339" class="TextPosition"><tspan fill="rgb(0,0,0)">400</tspan></tspan></tspan></text><text class="TextShape"><tspan font-weight="400" font-size="353px" font-family="Liberation Sans, sans-serif" class="TextParagraph"><tspan y="4454" x="1339" class="TextPosition"><tspan fill="rgb(0,0,0)">600</tspan></tspan></tspan></text><text class="TextShape"><tspan font-weight="400" font-size="353px" font-family="Liberation Sans, sans-serif" class="TextParagraph"><tspan y="3503" x="1339" class="TextPosition"><tspan fill="rgb(0,0,0)">800</tspan></tspan></tspan></text><text class="TextShape"><tspan font-weight="400" font-size="353px" font-family="Liberation Sans, sans-serif" class="TextParagraph"><tspan y="2553" x="1138" class="TextPosition"><tspan fill="rgb(0,0,0)">1000</tspan></tspan></tspan></text><text class="TextShape"><tspan font-weight="400" font-size="353px" font-family="Liberation Sans, sans-serif" class="TextParagraph"><tspan y="1603" x="1138" class="TextPosition"><tspan fill="rgb(0,0,0)">1200</tspan></tspan></tspan></text><text class="TextShape"><tspan font-weight="400" font-size="459px" font-family="Liberation Sans, sans-serif" class="TextParagraph"><tspan y="856" x="2857" class="TextPosition"><tspan fill="rgb(0,0,0)">Compressing the Linux Kernel on a Sun Fire T2000</tspan></tspan></tspan></text><text class="TextShape"><tspan font-weight="400" font-size="318px" font-family="Liberation Sans, sans-serif" class="TextParagraph"><tspan y="8410" x="7943" class="TextPosition"><tspan fill="rgb(0,0,0)"># Cores</tspan></tspan></tspan></text><text class="TextShape" transform="translate(848,5143) rotate(-90) translate(-848,-5143)"><tspan font-weight="400" font-size="318px" font-family="Liberation Sans, sans-serif" class="TextParagraph"><tspan y="5143" x="848" class="TextPosition"><tspan fill="rgb(0,0,0)">Time (s)</tspan></tspan></tspan></text></svg>
