<svg stroke-linejoin="round" xmlns="http://www.w3.org/2000/svg" height="90mm" width="160mm" version="1.1" stroke-width="28.222" viewBox="0 0 16000 9000"><path d="m7985 8999h-8e3v-8999h15999v8999h-7999z" fill="#fff"/><g stroke-linejoin="round" fill="none"><g stroke="#b3b3b3"><path d="m8719 7179h-6541v-5702h13082v5702h-6541z"/><path d="m15260 7178h-13082"/><path d="m15260 6465h-13082"/><path d="m15260 5752h-13082"/><path d="m15260 5039h-13082"/><path d="m15260 4327h-13082"/><path d="m15260 3614h-13082"/><path d="m15260 2901h-13082"/><path d="m15260 2188h-13082"/><path d="m15260 1476h-13082"/><path d="m2178 7328v-150"/><path d="m2178 7328v-150"/><path d="m2995 7328v-150"/><path d="m2995 7328v-150"/><path d="m3813 7328v-150"/><path d="m3813 7328v-150"/><path d="m4631 7328v-150"/><path d="m4631 7328v-150"/><path d="m5448 7328v-150"/><path d="m5448 7328v-150"/><path d="m6266 7328v-150"/><path d="m6266 7328v-150"/><path d="m7084 7328v-150"/><path d="m7084 7328v-150"/><path d="m7901 7328v-150"/><path d="m7901 7328v-150"/><path d="m8718 7328v-150"/><path d="m8718 7328v-150"/><path d="m9536 7328v-150"/><path d="m9536 7328v-150"/><path d="m10353 7328v-150"/><path d="m10353 7328v-150"/><path d="m11171 7328v-150"/><path d="m11171 7328v-150"/><path d="m11989 7328v-150"/><path d="m11989 7328v-150"/><path d="m12806 7328v-150"/><path d="m12806 7328v-150"/><path d="m13624 7328v-150"/><path d="m13624 7328v-150"/><path d="m14442 7328v-150"/><path d="m14442 7328v-150"/><path d="m15260 7328v-150"/><path d="m15260 7328v-150"/><path d="m2178 7178h13082"/><path d="m2028 7178h150"/><path d="m2028 7178h150"/><path d="m2028 6465h150"/><path d="m2028 6465h150"/><path d="m2028 5752h150"/><path d="m2028 5752h150"/><path d="m2028 5039h150"/><path d="m2028 5039h150"/><path d="m2028 4327h150"/><path d="m2028 4327h150"/><path d="m2028 3614h150"/><path d="m2028 3614h150"/><path d="m2028 2901h150"/><path d="m2028 2901h150"/><path d="m2028 2188h150"/><path d="m2028 2188h150"/><path d="m2028 1476h150"/><path d="m2028 1476h150"/><path d="m2178 7178v-5702"/></g><path stroke="#579d1c" stroke-width="80" d="m2586 5992v-3749l409 2388 409 792 409 383 409 231v-2l409 157 408 110v-1l409 47 409 39 409 30 409 32 409 26v-1 1l408 24 409 18 408 25v-6l409 7 409 4 409 8v-1l409 7 408 3 409 9 409-2 409 5 409-2 409 3 408 5v-11l409 4v-18l409 10v4l409 110v-117-19l409 159v-176-54"/></g><path d="m2461 5867v250h250v-250h-250z" fill="#579d1c"/><path stroke-linejoin="round" stroke="#579d1c" d="m2461 5867v250h250v-250h-250z" fill="none"/><path d="m2461 2118v250h250v-250h-250z" fill="#579d1c"/><path stroke-linejoin="round" stroke="#579d1c" d="m2461 2118v250h250v-250h-250z" fill="none"/><path d="m2870 4506v250h250v-250h-250z" fill="#579d1c"/><path stroke-linejoin="round" stroke="#579d1c" d="m2870 4506v250h250v-250h-250z" fill="none"/><path d="m2870 4506v250h250v-250h-250z" fill="#579d1c"/><path stroke-linejoin="round" stroke="#579d1c" d="m2870 4506v250h250v-250h-250z" fill="none"/><path d="m3279 5298v250h250v-250h-250z" fill="#579d1c"/><path stroke-linejoin="round" stroke="#579d1c" d="m3279 5298v250h250v-250h-250z" fill="none"/><path d="m3688 5681v250h250v-250h-250z" fill="#579d1c"/><path stroke-linejoin="round" stroke="#579d1c" d="m3688 5681v250h250v-250h-250z" fill="none"/><path d="m4097 5912v250h250v-250h-250z" fill="#579d1c"/><path stroke-linejoin="round" stroke="#579d1c" d="m4097 5912v250h250v-250h-250z" fill="none"/><path d="m4097 5910v250h250v-250h-250z" fill="#579d1c"/><path stroke-linejoin="round" stroke="#579d1c" d="m4097 5910v250h250v-250h-250z" fill="none"/><path d="m4506 6067v250h250v-250h-250z" fill="#579d1c"/><path stroke-linejoin="round" stroke="#579d1c" d="m4506 6067v250h250v-250h-250z" fill="none"/><path d="m4914 6177v250h250v-250h-250z" fill="#579d1c"/><path stroke-linejoin="round" stroke="#579d1c" d="m4914 6177v250h250v-250h-250z" fill="none"/><path d="m4914 6176v250h250v-250h-250z" fill="#579d1c"/><path stroke-linejoin="round" stroke="#579d1c" d="m4914 6176v250h250v-250h-250z" fill="none"/><path d="m5323 6223v250h250v-250h-250z" fill="#579d1c"/><path stroke-linejoin="round" stroke="#579d1c" d="m5323 6223v250h250v-250h-250z" fill="none"/><path d="m5732 6262v250h250v-250h-250z" fill="#579d1c"/><path stroke-linejoin="round" stroke="#579d1c" d="m5732 6262v250h250v-250h-250z" fill="none"/><path d="m6141 6292v250h250v-250h-250z" fill="#579d1c"/><path stroke-linejoin="round" stroke="#579d1c" d="m6141 6292v250h250v-250h-250z" fill="none"/><path d="m6550 6324v250h250v-250h-250z" fill="#579d1c"/><path stroke-linejoin="round" stroke="#579d1c" d="m6550 6324v250h250v-250h-250z" fill="none"/><path d="m6959 6350v250h250v-250h-250z" fill="#579d1c"/><path stroke-linejoin="round" stroke="#579d1c" d="m6959 6350v250h250v-250h-250z" fill="none"/><path d="m6959 6349v250h250v-250h-250z" fill="#579d1c"/><path stroke-linejoin="round" stroke="#579d1c" d="m6959 6349v250h250v-250h-250z" fill="none"/><path d="m6959 6350v250h250v-250h-250z" fill="#579d1c"/><path stroke-linejoin="round" stroke="#579d1c" d="m6959 6350v250h250v-250h-250z" fill="none"/><path d="m7367 6374v250h250v-250h-250z" fill="#579d1c"/><path stroke-linejoin="round" stroke="#579d1c" d="m7367 6374v250h250v-250h-250z" fill="none"/><path d="m7776 6392v250h249v-250h-249z" fill="#579d1c"/><path stroke-linejoin="round" stroke="#579d1c" d="m7776 6392v250h249v-250h-249z" fill="none"/><path d="m8184 6417v250h250v-250h-250z" fill="#579d1c"/><path stroke-linejoin="round" stroke="#579d1c" d="m8184 6417v250h250v-250h-250z" fill="none"/><path d="m8184 6411v250h250v-250h-250z" fill="#579d1c"/><path stroke-linejoin="round" stroke="#579d1c" d="m8184 6411v250h250v-250h-250z" fill="none"/><path d="m8593 6418v250h250v-250h-250z" fill="#579d1c"/><path stroke-linejoin="round" stroke="#579d1c" d="m8593 6418v250h250v-250h-250z" fill="none"/><path d="m9002 6422v250h250v-250h-250z" fill="#579d1c"/><path stroke-linejoin="round" stroke="#579d1c" d="m9002 6422v250h250v-250h-250z" fill="none"/><path d="m9411 6430v250h250v-250h-250z" fill="#579d1c"/><path stroke-linejoin="round" stroke="#579d1c" d="m9411 6430v250h250v-250h-250z" fill="none"/><path d="m9411 6429v250h250v-250h-250z" fill="#579d1c"/><path stroke-linejoin="round" stroke="#579d1c" d="m9411 6429v250h250v-250h-250z" fill="none"/><path d="m9820 6436v250h250v-250h-250z" fill="#579d1c"/><path stroke-linejoin="round" stroke="#579d1c" d="m9820 6436v250h250v-250h-250z" fill="none"/><path d="m10228 6439v250h250v-250h-250z" fill="#579d1c"/><path stroke-linejoin="round" stroke="#579d1c" d="m10228 6439v250h250v-250h-250z" fill="none"/><path d="m10637 6448v250h250v-250h-250z" fill="#579d1c"/><path stroke-linejoin="round" stroke="#579d1c" d="m10637 6448v250h250v-250h-250z" fill="none"/><path d="m11046 6446v250h250v-250h-250z" fill="#579d1c"/><path stroke-linejoin="round" stroke="#579d1c" d="m11046 6446v250h250v-250h-250z" fill="none"/><path d="m11455 6451v250h250v-250h-250z" fill="#579d1c"/><path stroke-linejoin="round" stroke="#579d1c" d="m11455 6451v250h250v-250h-250z" fill="none"/><path d="m11864 6449v250h250v-250h-250z" fill="#579d1c"/><path stroke-linejoin="round" stroke="#579d1c" d="m11864 6449v250h250v-250h-250z" fill="none"/><path d="m12273 6452v250h250v-250h-250z" fill="#579d1c"/><path stroke-linejoin="round" stroke="#579d1c" d="m12273 6452v250h250v-250h-250z" fill="none"/><path d="m12681 6457v250h250v-250h-250z" fill="#579d1c"/><path stroke-linejoin="round" stroke="#579d1c" d="m12681 6457v250h250v-250h-250z" fill="none"/><path d="m12681 6446v250h250v-250h-250z" fill="#579d1c"/><path stroke-linejoin="round" stroke="#579d1c" d="m12681 6446v250h250v-250h-250z" fill="none"/><path d="m13090 6450v250h250v-250h-250z" fill="#579d1c"/><path stroke-linejoin="round" stroke="#579d1c" d="m13090 6450v250h250v-250h-250z" fill="none"/><path d="m13090 6432v250h250v-250h-250z" fill="#579d1c"/><path stroke-linejoin="round" stroke="#579d1c" d="m13090 6432v250h250v-250h-250z" fill="none"/><path d="m13499 6442v250h250v-250h-250z" fill="#579d1c"/><path stroke-linejoin="round" stroke="#579d1c" d="m13499 6442v250h250v-250h-250z" fill="none"/><path d="m13499 6446v250h250v-250h-250z" fill="#579d1c"/><path stroke-linejoin="round" stroke="#579d1c" d="m13499 6446v250h250v-250h-250z" fill="none"/><path d="m13908 6556v250h250v-250h-250z" fill="#579d1c"/><path stroke-linejoin="round" stroke="#579d1c" d="m13908 6556v250h250v-250h-250z" fill="none"/><path d="m13908 6439v250h250v-250h-250z" fill="#579d1c"/><path stroke-linejoin="round" stroke="#579d1c" d="m13908 6439v250h250v-250h-250z" fill="none"/><path d="m13908 6420v250h250v-250h-250z" fill="#579d1c"/><path stroke-linejoin="round" stroke="#579d1c" d="m13908 6420v250h250v-250h-250z" fill="none"/><path d="m14317 6579v250h250v-250h-250z" fill="#579d1c"/><path stroke-linejoin="round" stroke="#579d1c" d="m14317 6579v250h250v-250h-250z" fill="none"/><path d="m14317 6403v250h250v-250h-250z" fill="#579d1c"/><path stroke-linejoin="round" stroke="#579d1c" d="m14317 6403v250h250v-250h-250z" fill="none"/><path d="m14317 6349v250h250v-250h-250z" fill="#579d1c"/><path stroke-linejoin="round" stroke="#579d1c" d="m14317 6349v250h250v-250h-250z" fill="none"/><text class="TextShape"><tspan font-weight="400" font-size="353px" font-family="Liberation Sans, sans-serif" class="TextParagraph"><tspan y="7755" x="2077" class="TextPosition"><tspan fill="rgb(0,0,0)">0</tspan></tspan></tspan></text><text class="TextShape"><tspan font-weight="400" font-size="353px" font-family="Liberation Sans, sans-serif" class="TextParagraph"><tspan y="7755" x="2894" class="TextPosition"><tspan fill="rgb(0,0,0)">2</tspan></tspan></tspan></text><text class="TextShape"><tspan font-weight="400" font-size="353px" font-family="Liberation Sans, sans-serif" class="TextParagraph"><tspan y="7755" x="3712" class="TextPosition"><tspan fill="rgb(0,0,0)">4</tspan></tspan></tspan></text><text class="TextShape"><tspan font-weight="400" font-size="353px" font-family="Liberation Sans, sans-serif" class="TextParagraph"><tspan y="7755" x="4530" class="TextPosition"><tspan fill="rgb(0,0,0)">6</tspan></tspan></tspan></text><text class="TextShape"><tspan font-weight="400" font-size="353px" font-family="Liberation Sans, sans-serif" class="TextParagraph"><tspan y="7755" x="5347" class="TextPosition"><tspan fill="rgb(0,0,0)">8</tspan></tspan></tspan></text><text class="TextShape"><tspan font-weight="400" font-size="353px" font-family="Liberation Sans, sans-serif" class="TextParagraph"><tspan y="7755" x="6065" class="TextPosition"><tspan fill="rgb(0,0,0)">10</tspan></tspan></tspan></text><text class="TextShape"><tspan font-weight="400" font-size="353px" font-family="Liberation Sans, sans-serif" class="TextParagraph"><tspan y="7755" x="6883" class="TextPosition"><tspan fill="rgb(0,0,0)">12</tspan></tspan></tspan></text><text class="TextShape"><tspan font-weight="400" font-size="353px" font-family="Liberation Sans, sans-serif" class="TextParagraph"><tspan y="7755" x="7700" class="TextPosition"><tspan fill="rgb(0,0,0)">14</tspan></tspan></tspan></text><text class="TextShape"><tspan font-weight="400" font-size="353px" font-family="Liberation Sans, sans-serif" class="TextParagraph"><tspan y="7755" x="8518" class="TextPosition"><tspan fill="rgb(0,0,0)">16</tspan></tspan></tspan></text><text class="TextShape"><tspan font-weight="400" font-size="353px" font-family="Liberation Sans, sans-serif" class="TextParagraph"><tspan y="7755" x="9336" class="TextPosition"><tspan fill="rgb(0,0,0)">18</tspan></tspan></tspan></text><text class="TextShape"><tspan font-weight="400" font-size="353px" font-family="Liberation Sans, sans-serif" class="TextParagraph"><tspan y="7755" x="10153" class="TextPosition"><tspan fill="rgb(0,0,0)">20</tspan></tspan></tspan></text><text class="TextShape"><tspan font-weight="400" font-size="353px" font-family="Liberation Sans, sans-serif" class="TextParagraph"><tspan y="7755" x="10971" class="TextPosition"><tspan fill="rgb(0,0,0)">22</tspan></tspan></tspan></text><text class="TextShape"><tspan font-weight="400" font-size="353px" font-family="Liberation Sans, sans-serif" class="TextParagraph"><tspan y="7755" x="11789" class="TextPosition"><tspan fill="rgb(0,0,0)">24</tspan></tspan></tspan></text><text class="TextShape"><tspan font-weight="400" font-size="353px" font-family="Liberation Sans, sans-serif" class="TextParagraph"><tspan y="7755" x="12606" class="TextPosition"><tspan fill="rgb(0,0,0)">26</tspan></tspan></tspan></text><text class="TextShape"><tspan font-weight="400" font-size="353px" font-family="Liberation Sans, sans-serif" class="TextParagraph"><tspan y="7755" x="13424" class="TextPosition"><tspan fill="rgb(0,0,0)">28</tspan></tspan></tspan></text><text class="TextShape"><tspan font-weight="400" font-size="353px" font-family="Liberation Sans, sans-serif" class="TextParagraph"><tspan y="7755" x="14242" class="TextPosition"><tspan fill="rgb(0,0,0)">30</tspan></tspan></tspan></text><text class="TextShape"><tspan font-weight="400" font-size="353px" font-family="Liberation Sans, sans-serif" class="TextParagraph"><tspan y="7755" x="15060" class="TextPosition"><tspan fill="rgb(0,0,0)">32</tspan></tspan></tspan></text><text class="TextShape"><tspan font-weight="400" font-size="353px" font-family="Liberation Sans, sans-serif" class="TextParagraph"><tspan y="7305" x="1727" class="TextPosition"><tspan fill="rgb(0,0,0)">0</tspan></tspan></tspan></text><text class="TextShape"><tspan font-weight="400" font-size="353px" font-family="Liberation Sans, sans-serif" class="TextParagraph"><tspan y="6592" x="1324" class="TextPosition"><tspan fill="rgb(0,0,0)">200</tspan></tspan></tspan></text><text class="TextShape"><tspan font-weight="400" font-size="353px" font-family="Liberation Sans, sans-serif" class="TextParagraph"><tspan y="5879" x="1324" class="TextPosition"><tspan fill="rgb(0,0,0)">400</tspan></tspan></tspan></text><text class="TextShape"><tspan font-weight="400" font-size="353px" font-family="Liberation Sans, sans-serif" class="TextParagraph"><tspan y="5166" x="1324" class="TextPosition"><tspan fill="rgb(0,0,0)">600</tspan></tspan></tspan></text><text class="TextShape"><tspan font-weight="400" font-size="353px" font-family="Liberation Sans, sans-serif" class="TextParagraph"><tspan y="4453" x="1324" class="TextPosition"><tspan fill="rgb(0,0,0)">800</tspan></tspan></tspan></text><text class="TextShape"><tspan font-weight="400" font-size="353px" font-family="Liberation Sans, sans-serif" class="TextParagraph"><tspan y="3740" x="1123" class="TextPosition"><tspan fill="rgb(0,0,0)">1000</tspan></tspan></tspan></text><text class="TextShape"><tspan font-weight="400" font-size="353px" font-family="Liberation Sans, sans-serif" class="TextParagraph"><tspan y="3027" x="1123" class="TextPosition"><tspan fill="rgb(0,0,0)">1200</tspan></tspan></tspan></text><text class="TextShape"><tspan font-weight="400" font-size="353px" font-family="Liberation Sans, sans-serif" class="TextParagraph"><tspan y="2314" x="1123" class="TextPosition"><tspan fill="rgb(0,0,0)">1400</tspan></tspan></tspan></text><text class="TextShape"><tspan font-weight="400" font-size="353px" font-family="Liberation Sans, sans-serif" class="TextParagraph"><tspan y="1602" x="1123" class="TextPosition"><tspan fill="rgb(0,0,0)">1600</tspan></tspan></tspan></text><text class="TextShape"><tspan font-weight="400" font-size="459px" font-family="Liberation Sans, sans-serif" class="TextParagraph"><tspan y="856" x="3169" class="TextPosition"><tspan fill="rgb(0,0,0)">Compiling the Linux Kernel on a Sun Fire T2000</tspan></tspan></tspan></text><text class="TextShape"><tspan font-weight="400" font-size="318px" font-family="Liberation Sans, sans-serif" class="TextParagraph"><tspan y="8410" x="7928" class="TextPosition"><tspan fill="rgb(0,0,0)"># Cores</tspan></tspan></tspan></text><text class="TextShape" transform="translate(833,5143) rotate(-90) translate(-833,-5143)"><tspan font-weight="400" font-size="318px" font-family="Liberation Sans, sans-serif" class="TextParagraph"><tspan y="5143" x="833" class="TextPosition"><tspan fill="rgb(0,0,0)">Time (s)</tspan></tspan></tspan></text></svg>
