<svg xmlns="http://www.w3.org/2000/svg" height="102.7mm" width="207.7mm" viewBox="0 0 735.945487 363.897937"><g stroke="#000" fill="none"><g stroke-width="0.09"><g transform="translate(22.5 22.5)"><title>Front</title><path d="M0 0h79.724v10.63h10.63V0h10.63v10.63h10.63V0h74.41v10.63h13.287V0h13.29v10.63h-10.63v10.63h10.63v10.63h-10.63v10.63h10.63v10.63h-13.29V42.52h-13.29v10.63h-10.63V17.911h-53.15V53.15h-10.63V42.52h-10.63v10.63H90.355V42.52h-10.63v10.63H69.096l-.142-35.239H20.957l.141 35.239H.001V42.52h10.63V31.89H.001V21.26h10.63V10.63H.001z"/></g><g transform="translate(235.1 22.5)"><title>Back</title><path d="M0 0h13.287v10.63h13.288V0h10.63v10.63h10.63V0h10.63v10.63h10.63V0h10.63v10.63h10.63V0h53.15v10.63h10.63V0h10.63v10.63h10.63V0h10.63v10.63h13.287V0h13.29v10.63h-10.63v10.63h10.63v10.63h-10.63v10.63h10.63v10.63h-13.29V42.52h-13.29v10.63h-10.63V42.52h-10.63v10.63h-10.63V42.52h-10.63v10.63h-10.63V42.52h-10.63v10.63h-10.63V42.52h-10.63v10.63H90.356V42.52h-10.63v10.63H69.097V42.52h-10.63v10.63h-10.63V42.52h-10.63v10.63h-10.63V42.52H13.289v10.63H.002V42.52h10.63V31.89H.002V21.26h10.63V10.63H.002z"/></g><g transform="translate(447.7 22.5)"><title>Left</title><path d="M10.63 0h5.315v10.63H31.89V0h10.63v10.63h10.63V0h10.63v10.63h10.63V0h10.629v10.63h10.63V0h10.63v10.63h10.63V0h116.93v10.63h15.945V0h5.315v10.63h10.63v10.63h-10.63v10.63h10.63v10.63h-10.63v10.63h-5.315V42.52h-15.94v10.63h-10.63V42.52h-10.63v10.63h-10.63V42.52h-10.63v10.63h-10.63V42.52h-10.63v10.63h-10.63V42.52h-10.63v10.63h-10.63V42.52h-10.63v10.63h-10.63V42.52h-10.63v10.63H95.673V42.52h-10.63v10.63H74.414V42.52h-10.63v10.63h-10.63V42.52h-10.63v10.63h-10.63V42.52H15.949v10.63h-5.315V42.52H.004V31.89h10.63V21.26H.004V10.63h10.63z"/></g><g transform="translate(447.7 75.65)"><title>Right</title><path d="M10.63 0h5.315v10.63H31.89V0H212.6v10.63h10.63V0h10.63v10.63h15.945V0h5.315v10.63h10.63v10.63h-10.63v10.63h10.63v10.63h-10.63v10.63h-5.315V42.52h-15.94v10.63h-10.63V42.52h-10.63v10.63h-10.63V42.52h-10.63v10.63h-10.63V42.52h-10.63v10.63h-10.63V42.52h-10.63v10.63h-10.63V42.52h-10.63v10.63h-10.63V42.52h-10.63v10.63H95.674V42.52h-10.63v10.63H74.415V42.52h-10.63v10.63h-10.63V42.52h-10.63v10.63h-10.63V42.52H15.95v10.63h-5.315V42.52H.005V31.89h10.63V21.26H.005V10.63h10.63z"/></g><g transform="translate(22.5 75.65)"><title>Bottom</title><path d="M10.63 10.63h10.467V0h47.997v10.63h10.63V0h10.63v10.63h10.626V0h10.63v10.63h10.63V0h53.15v10.63h10.63V0h13.287v10.63h2.658v5.315h10.63V31.89h-10.63v10.63h10.63v10.63h-10.63v10.63h10.63v10.63h-10.63v10.63h10.63v10.63h-10.63v10.63h10.63v10.63h-10.63v10.63h10.63v10.63h-10.63v10.63h10.63v10.63h-10.63v10.63h10.63v10.63h-10.63v10.63h10.63v10.63h-10.63v10.63h10.63v10.63h-10.63v10.63h10.63v15.945h-10.63v5.315h-2.658v10.63H186.02v-10.63h-10.63v10.63h-10.63v-10.63h-10.63v10.63H143.5v-10.63h-10.63v10.63h-10.63v-10.63h-10.63v10.63h-10.63v-10.63H90.354v10.63h-10.63v-10.63h-10.63v10.63h-10.63v-10.63h-10.63v10.63h-10.63v-10.63h-10.63v10.63H13.287v-10.63H10.63v-5.315H0v-15.94h10.63v-10.63H0v-10.63h10.63v-10.63H0v-10.63h10.63v-10.63H0v-10.63h10.63v-10.63H0v-10.63h10.63v-10.63H0v-10.63h10.63v-10.63H0v-10.63h10.63V95.674H0v-10.63h10.63V74.415H0v-10.63h10.63v-10.63H0v-10.63h10.63v-10.63H0V15.95h10.63z"/></g></g><path d="M314.822 75.65v10.63h-69.094v5.315h-10.631v15.946h10.631v10.63h-10.631v10.632h10.631v10.622h-10.631v10.631h10.631v10.631h-10.631v10.632h10.631v10.631h-10.631v10.631h43.856v125.681h-33.225v-8.756h-10.631v15.947h10.631v5.316h2.663V341.4h13.284v-10.631h10.631V341.4h10.622v-10.631h10.631V341.4h10.632v-10.631h10.63V341.4h10.632v-68.494H378.6V341.4h10.631v-10.631h10.632V341.4h10.63v-10.631h10.632V341.4h13.284v-10.631h2.663v-5.316h10.622v-15.947h-13.285v8.756h-29.306V194.634h-48.778v-22.153h39.825v-43.678h51.544v-10.631h-10.622V107.54h10.622V91.595h-10.622v-5.316h-2.663V75.65h-13.284v10.63h-74.41V75.65h-10.63v10.63h-10.632V75.65h-10.631zm-14.353 31.122h24.806v9.469h-15.6v10.921h31.584v-20.39h9.207v49.997h-9.207v-20.4h-31.584V147.3h15.6v9.469h-24.806v-49.997z" stroke-width=".09"/></g></svg>