<svg xmlns="http://www.w3.org/2000/svg" height="91.039mm" width="221.74mm" viewBox="0 0 785.68292947 322.57939909"><path d="M22.5 22.5h17.228v10.63h14.394V22.5h12.047v10.63h9.213V22.5h12.047v10.63h9.212V22.5h12.047v10.63h9.213V22.5h171.23v15.591H278.5v12.756h10.63v12.047H278.5V75.65h10.63v15.591h-17.228v-10.63h-14.394v10.63h-12.047v-10.63h-9.213v10.63h-12.047v-10.63h-9.212v10.63h-12.047v-10.63h-9.213v10.63h-12.047v-10.63h-9.213v10.63h-12.047v-10.63h-9.212v10.63h-12.047v-10.63h-9.213v10.63h-12.047v-10.63h-9.212v10.63H96.645v-10.63h-9.213v10.63H75.385v-10.63h-9.213v10.63H54.125v-10.63H39.731v10.63H22.503V75.65h10.63V62.894h-10.63V50.847h10.63V38.091h-10.63z" stroke="#000" stroke-width="0.9" fill="none"/><path d="M289.13 22.5h17.228v10.63h14.394V22.5h12.047v10.63h9.213V22.5h213.75v15.591h-10.63v12.756h10.63v12.047h-10.63V75.65h10.63v15.591h-17.228v-10.63H524.14v10.63h-12.047v-10.63h-9.213v10.63h-12.047v-10.63h-9.213v10.63h-12.047v-10.63h-9.212v10.63h-12.047v-10.63H439.1v10.63h-12.047v-10.63h-9.212v10.63h-12.047v-10.63h-9.213v10.63h-12.047v-10.63h-9.213v10.63h-12.047v-10.63h-9.212v10.63h-12.047v-10.63h-9.213v10.63h-12.047v-10.63h-14.394v10.63h-17.228V75.65h10.63V62.894h-10.63V50.847h10.63V38.091h-10.63z" stroke="#000" stroke-width="0.9" fill="none"/><path d="M756.8 22.5h-58.711v10.63h-9.213V22.5H676.83v10.63h-9.212V22.5h-101.23v14.173h-10.63v15.591h10.63v9.213h-10.63v15.59h10.63v14.174h8.804V33.13h80.379v58.11h12.047V80.61h9.213v10.63h12.047V80.61h9.212v10.63h12.047V33.13h37.86v58.11h8.803V77.068h10.63V61.477H756.8v-9.213h10.63V36.673H756.8z" stroke="#000" stroke-width="0.9" fill="none"/><path d="M566.39 159.98h8.804v-10.63h16.6v10.63h12.047v-10.63h9.213v10.63H625.1v-10.63h9.212v10.63h12.047v-10.63h9.213v10.63h12.047v-10.63h9.213v10.63h12.047v-10.63h9.212v10.63h12.047v-10.63h9.213v10.63h12.047v-10.63h16.6v10.63h8.804v-14.173h10.63v-15.591h-10.63v-9.213h10.63v-15.59h-10.63V91.238h-8.804v10.63h-16.6V91.24h-12.047v10.63h-9.213V91.24h-12.047v10.63h-9.212V91.24h-75.827v10.63h-9.213V91.24h-12.047v10.63h-16.6V91.24h-8.804v14.173h-10.63v15.591h10.63v9.213h-10.63v15.591h10.63zM38.311 91.24v10.629h-5.18v7.389h-10.63v83.213h10.63v9.213h-10.63v12.047h10.63v9.212h-10.63v12.047h10.63v9.213h-10.63v40.693h10.63v7.387h5.18v10.631H55.54v-10.63h9.213v10.63H76.8v-10.63h9.213v10.63H98.06v-10.63h9.213v10.63h12.047v-10.63h9.213v10.63h12.047v-10.63h9.212v10.63h12.047v-10.63h9.213v10.63h12.05v-10.63h9.21v10.63h12.05v-10.63h9.21v10.63h12.05v-10.63h9.21v10.63h12.05v-10.63h9.21v10.63h17.229v-10.63h5.182v-7.388h10.63v-19.434h-10.63v-9.213h10.63v-12.047h-10.63v-9.212h10.63v-12.047h-10.63v-9.213h10.63v-12.047h-10.63v-9.213h10.63v-12.047h-10.63v-9.213h10.63v-12.047h-10.63v-9.213h10.63v-12.047h-10.63v-9.213h10.63v-19.434h-10.63v-7.389h-5.182V91.238h-17.229v10.63h-9.21v-10.63h-12.05v10.63h-9.21v-10.63h-12.05v10.63h-9.21v-10.63h-12.05v10.63h-9.21v-10.63h-12.05v10.63h-9.213v-10.63h-12.047v10.63h-9.212v-10.63h-12.047v10.63h-9.213v-10.63h-12.047v10.63H98.06v-10.63H86.013v10.63H76.8v-10.63H64.753v10.63H55.54v-10.63z" stroke="#000" stroke-width="0.9" fill="none"/><path d="M304.94 91.24v10.63h-5.18v99.81h-10.63v12.05h10.63v9.21h-10.63v12.05h10.63v57.29h5.18v10.63h17.23v-10.63h9.21v10.63h12.05v-10.63h9.21v10.63h12.05v-10.63h9.21v10.63h12.05v-27.6h149.72v16.97h9.46v-7.38h10.63v-19.44h-10.63v-9.21h10.63V244.2h-10.63v-9.21h-62.97v-63.78h73.6v-12.05h-10.63v-9.21h10.63V137.9h-10.63v-9.21h10.63v-19.43h-10.63v-7.39h-9.46v18.48l-153.01-.22v21.51h-39.23v-50.4h-12.05v10.63h-9.21V91.24h-17.23zm93.23 81.08h50v9.21h-20.4v31.58h10.93v-15.6h9.47v24.81h-50v-24.81h9.47v15.6h10.92v-31.58h-20.39v-9.21z" stroke="#000" stroke-width="0.9" fill="none"/></svg>