<svg stroke-linejoin="round" xmlns="http://www.w3.org/2000/svg" height="90mm" width="160mm" stroke-width="28.222" viewBox="0 0 16000 9000"><path d="M8000 8999H0V0h15999v8999H8000z" fill="#fff"/><g fill="none"><path d="M8734 7179H2193V1478h13082v5701H8734zm6541-1H2193m13082-951H2193m13082-950H2193m13082-949H2193m13082-951H2193m13082-950H2193m13082-950H2193m0 5851v-150m0 150v-150m817 150v-150m0 150v-150m818 150v-150m0 150v-150m818 150v-150m0 150v-150m817 150v-150m0 150v-150m818 150v-150m0 150v-150m818 150v-150m0 150v-150m817 150v-150m0 150v-150m817 150v-150m0 150v-150m818 150v-150m0 150v-150m817 150v-150m0 150v-150m818 150v-150m0 150v-150m818 150v-150m0 150v-150m817 150v-150m0 150v-150m818 150v-150m0 150v-150m818 150v-150m0 150v-150m818 150v-150m0 150v-150m-13082 0h13082m-13232 0h150m-150 0h150m-150-951h150m-150 0h150m-150-950h150m-150 0h150m-150-949h150m-150 0h150m-150-951h150m-150 0h150m-150-950h150m-150 0h150m-150-950h150m-150 0h150m0 5701V1477" stroke="#b3b3b3"/><path stroke="#004586" stroke-width="80" d="M2601 2029v93l409 2443v5l409 829v3l409 402 409 243 409 180v-4l408 125 409 88 409 68 409 7 409 45 409 20 408-10v3l409 31 408 51v-4 5l409 3 409 12 409 23 409 32 408-9 409 7v-11l409 13 409-11v3l409 17 409 1v12l408 15 409-28 409-20 409-1 409 51 409-5 409-3v1"/></g><path d="M2476 1904v250h250v-250h-250z" fill="#004586"/><path stroke="#004586" d="M2476 1904v250h250v-250h-250z" fill="none"/><path d="M2476 1997v250h250v-250h-250z" fill="#004586"/><path stroke="#004586" d="M2476 1997v250h250v-250h-250z" fill="none"/><path d="M2885 4441v249h250v-249h-250z" fill="#004586"/><path stroke="#004586" d="M2885 4441v249h250v-249h-250z" fill="none"/><path d="M2885 4446v249h250v-249h-250z" fill="#004586"/><path stroke="#004586" d="M2885 4446v249h250v-249h-250z" fill="none"/><path d="M3294 5274v250h250v-250h-250z" fill="#004586"/><path stroke="#004586" d="M3294 5274v250h250v-250h-250z" fill="none"/><path d="M3294 5277v250h250v-250h-250z" fill="#004586"/><path stroke="#004586" d="M3294 5277v250h250v-250h-250z" fill="none"/><path d="M3703 5679v250h250v-250h-250z" fill="#004586"/><path stroke="#004586" d="M3703 5679v250h250v-250h-250z" fill="none"/><path d="M4112 5922v250h250v-250h-250z" fill="#004586"/><path stroke="#004586" d="M4112 5922v250h250v-250h-250z" fill="none"/><path d="M4521 6102v250h250v-250h-250z" fill="#004586"/><path stroke="#004586" d="M4521 6102v250h250v-250h-250z" fill="none"/><path d="M4521 6098v250h250v-250h-250z" fill="#004586"/><path stroke="#004586" d="M4521 6098v250h250v-250h-250z" fill="none"/><path d="M4929 6223v250h250v-250h-250z" fill="#004586"/><path stroke="#004586" d="M4929 6223v250h250v-250h-250z" fill="none"/><path d="M5338 6311v250h250v-250h-250z" fill="#004586"/><path stroke="#004586" d="M5338 6311v250h250v-250h-250z" fill="none"/><path d="M5747 6379v250h250v-250h-250z" fill="#004586"/><path stroke="#004586" d="M5747 6379v250h250v-250h-250z" fill="none"/><path d="M6156 6386v250h250v-250h-250z" fill="#004586"/><path stroke="#004586" d="M6156 6386v250h250v-250h-250z" fill="none"/><path d="M6565 6431v250h250v-250h-250z" fill="#004586"/><path stroke="#004586" d="M6565 6431v250h250v-250h-250z" fill="none"/><path d="M6974 6451v250h250v-250h-250z" fill="#004586"/><path stroke="#004586" d="M6974 6451v250h250v-250h-250z" fill="none"/><path d="M7382 6441v250h250v-250h-250z" fill="#004586"/><path stroke="#004586" d="M7382 6441v250h250v-250h-250z" fill="none"/><path d="M7382 6444v250h250v-250h-250z" fill="#004586"/><path stroke="#004586" d="M7382 6444v250h250v-250h-250z" fill="none"/><path d="M7791 6475v250h249v-250h-249z" fill="#004586"/><path stroke="#004586" d="M7791 6475v250h249v-250h-249z" fill="none"/><path d="M8199 6526v250h250v-250h-250z" fill="#004586"/><path stroke="#004586" d="M8199 6526v250h250v-250h-250z" fill="none"/><path d="M8199 6522v250h250v-250h-250z" fill="#004586"/><path stroke="#004586" d="M8199 6522v250h250v-250h-250z" fill="none"/><path d="M8199 6527v250h250v-250h-250z" fill="#004586"/><path stroke="#004586" d="M8199 6527v250h250v-250h-250z" fill="none"/><path d="M8608 6530v250h250v-250h-250z" fill="#004586"/><path stroke="#004586" d="M8608 6530v250h250v-250h-250z" fill="none"/><path d="M9017 6542v250h250v-250h-250z" fill="#004586"/><path stroke="#004586" d="M9017 6542v250h250v-250h-250z" fill="none"/><path d="M9426 6565v250h250v-250h-250z" fill="#004586"/><path stroke="#004586" d="M9426 6565v250h250v-250h-250z" fill="none"/><path d="M9835 6597v250h250v-250h-250z" fill="#004586"/><path stroke="#004586" d="M9835 6597v250h250v-250h-250z" fill="none"/><path d="M10243 6588v250h250v-250h-250z" fill="#004586"/><path stroke="#004586" d="M10243 6588v250h250v-250h-250z" fill="none"/><path d="M10652 6595v250h250v-250h-250z" fill="#004586"/><path stroke="#004586" d="M10652 6595v250h250v-250h-250z" fill="none"/><path d="M10652 6584v250h250v-250h-250z" fill="#004586"/><path stroke="#004586" d="M10652 6584v250h250v-250h-250z" fill="none"/><path d="M11061 6597v250h250v-250h-250z" fill="#004586"/><path stroke="#004586" d="M11061 6597v250h250v-250h-250z" fill="none"/><path d="M11470 6586v250h250v-250h-250z" fill="#004586"/><path stroke="#004586" d="M11470 6586v250h250v-250h-250z" fill="none"/><path d="M11470 6589v250h250v-250h-250z" fill="#004586"/><path stroke="#004586" d="M11470 6589v250h250v-250h-250z" fill="none"/><path d="M11879 6606v250h250v-250h-250z" fill="#004586"/><path stroke="#004586" d="M11879 6606v250h250v-250h-250z" fill="none"/><path d="M12288 6607v250h250v-250h-250z" fill="#004586"/><path stroke="#004586" d="M12288 6607v250h250v-250h-250z" fill="none"/><path d="M12288 6619v250h250v-250h-250z" fill="#004586"/><path stroke="#004586" d="M12288 6619v250h250v-250h-250z" fill="none"/><path d="M12696 6634v250h250v-250h-250z" fill="#004586"/><path stroke="#004586" d="M12696 6634v250h250v-250h-250z" fill="none"/><path d="M13105 6606v250h250v-250h-250z" fill="#004586"/><path stroke="#004586" d="M13105 6606v250h250v-250h-250z" fill="none"/><path d="M13514 6586v250h250v-250h-250z" fill="#004586"/><path stroke="#004586" d="M13514 6586v250h250v-250h-250z" fill="none"/><path d="M13923 6585v250h250v-250h-250z" fill="#004586"/><path stroke="#004586" d="M13923 6585v250h250v-250h-250z" fill="none"/><path d="M14332 6636v250h250v-250h-250z" fill="#004586"/><path stroke="#004586" d="M14332 6636v250h250v-250h-250z" fill="none"/><path d="M14741 6631v250h250v-250h-250z" fill="#004586"/><path stroke="#004586" d="M14741 6631v250h250v-250h-250z" fill="none"/><path d="M15150 6628v250h250v-250h-250z" fill="#004586"/><path stroke="#004586" d="M15150 6628v250h250v-250h-250z" fill="none"/><path d="M15150 6629v250h250v-250h-250z" fill="#004586"/><path stroke="#004586" d="M15150 6629v250h250v-250h-250z" fill="none"/><text class="TextShape"><tspan font-weight="400" font-size="353px" font-family="FreeSans, sans-serif" class="TextParagraph"><tspan y="7755" x="2092" class="TextPosition"><tspan>0</tspan></tspan></tspan></text><text class="TextShape"><tspan font-weight="400" font-size="353px" font-family="FreeSans, sans-serif" class="TextParagraph"><tspan y="7755" x="2909" class="TextPosition"><tspan>2</tspan></tspan></tspan></text><text class="TextShape"><tspan font-weight="400" font-size="353px" font-family="FreeSans, sans-serif" class="TextParagraph"><tspan y="7755" x="3727" class="TextPosition"><tspan>4</tspan></tspan></tspan></text><text class="TextShape"><tspan font-weight="400" font-size="353px" font-family="FreeSans, sans-serif" class="TextParagraph"><tspan y="7755" x="4545" class="TextPosition"><tspan>6</tspan></tspan></tspan></text><text class="TextShape"><tspan font-weight="400" font-size="353px" font-family="FreeSans, sans-serif" class="TextParagraph"><tspan y="7755" x="5362" class="TextPosition"><tspan>8</tspan></tspan></tspan></text><text class="TextShape"><tspan font-weight="400" font-size="353px" font-family="FreeSans, sans-serif" class="TextParagraph"><tspan y="7755" x="6080" class="TextPosition"><tspan>10</tspan></tspan></tspan></text><text class="TextShape"><tspan font-weight="400" font-size="353px" font-family="FreeSans, sans-serif" class="TextParagraph"><tspan y="7755" x="6898" class="TextPosition"><tspan>12</tspan></tspan></tspan></text><text class="TextShape"><tspan font-weight="400" font-size="353px" font-family="FreeSans, sans-serif" class="TextParagraph"><tspan y="7755" x="7715" class="TextPosition"><tspan>14</tspan></tspan></tspan></text><text class="TextShape"><tspan font-weight="400" font-size="353px" font-family="FreeSans, sans-serif" class="TextParagraph"><tspan y="7755" x="8533" class="TextPosition"><tspan>16</tspan></tspan></tspan></text><text class="TextShape"><tspan font-weight="400" font-size="353px" font-family="FreeSans, sans-serif" class="TextParagraph"><tspan y="7755" x="9351" class="TextPosition"><tspan>18</tspan></tspan></tspan></text><text class="TextShape"><tspan font-weight="400" font-size="353px" font-family="FreeSans, sans-serif" class="TextParagraph"><tspan y="7755" x="10168" class="TextPosition"><tspan>20</tspan></tspan></tspan></text><text class="TextShape"><tspan font-weight="400" font-size="353px" font-family="FreeSans, sans-serif" class="TextParagraph"><tspan y="7755" x="10986" class="TextPosition"><tspan>22</tspan></tspan></tspan></text><text class="TextShape"><tspan font-weight="400" font-size="353px" font-family="FreeSans, sans-serif" class="TextParagraph"><tspan y="7755" x="11804" class="TextPosition"><tspan>24</tspan></tspan></tspan></text><text class="TextShape"><tspan font-weight="400" font-size="353px" font-family="FreeSans, sans-serif" class="TextParagraph"><tspan y="7755" x="12621" class="TextPosition"><tspan>26</tspan></tspan></tspan></text><text class="TextShape"><tspan font-weight="400" font-size="353px" font-family="FreeSans, sans-serif" class="TextParagraph"><tspan y="7755" x="13439" class="TextPosition"><tspan>28</tspan></tspan></tspan></text><text class="TextShape"><tspan font-weight="400" font-size="353px" font-family="FreeSans, sans-serif" class="TextParagraph"><tspan y="7755" x="14257" class="TextPosition"><tspan>30</tspan></tspan></tspan></text><text class="TextShape"><tspan font-weight="400" font-size="353px" font-family="FreeSans, sans-serif" class="TextParagraph"><tspan y="7755" x="15075" class="TextPosition"><tspan>32</tspan></tspan></tspan></text><text class="TextShape"><tspan font-weight="400" font-size="353px" font-family="Liberation Sans, sans-serif" class="TextParagraph"><tspan y="7305" x="1742" class="TextPosition"><tspan>0</tspan></tspan></tspan></text><text class="TextShape"><tspan font-weight="400" font-size="353px" font-family="Liberation Sans, sans-serif" class="TextParagraph"><tspan y="6354" x="1339" class="TextPosition"><tspan>200</tspan></tspan></tspan></text><text class="TextShape"><tspan font-weight="400" font-size="353px" font-family="Liberation Sans, sans-serif" class="TextParagraph"><tspan y="5404" x="1339" class="TextPosition"><tspan>400</tspan></tspan></tspan></text><text class="TextShape"><tspan font-weight="400" font-size="353px" font-family="Liberation Sans, sans-serif" class="TextParagraph"><tspan y="4454" x="1339" class="TextPosition"><tspan>600</tspan></tspan></tspan></text><text class="TextShape"><tspan font-weight="400" font-size="353px" font-family="Liberation Sans, sans-serif" class="TextParagraph"><tspan y="3503" x="1339" class="TextPosition"><tspan>800</tspan></tspan></tspan></text><text class="TextShape"><tspan font-weight="400" font-size="353px" font-family="Liberation Sans, sans-serif" class="TextParagraph"><tspan y="2553" x="1138" class="TextPosition"><tspan>1000</tspan></tspan></tspan></text><text class="TextShape"><tspan font-weight="400" font-size="353px" font-family="Liberation Sans, sans-serif" class="TextParagraph"><tspan y="1603" x="1138" class="TextPosition"><tspan>1200</tspan></tspan></tspan></text><text class="TextShape"><tspan font-weight="400" font-size="459px" font-family="Liberation Sans, sans-serif" class="TextParagraph"><tspan y="856" x="2857" class="TextPosition"><tspan>Compressing the Linux Kernel on a Sun Fire T2000</tspan></tspan></tspan></text><text class="TextShape"><tspan font-weight="400" font-size="318px" font-family="Liberation Sans, sans-serif" class="TextParagraph"><tspan y="8410" x="7943" class="TextPosition"><tspan># Cores</tspan></tspan></tspan></text><text class="TextShape" transform="rotate(-90 848 5143)"><tspan font-weight="400" font-size="318px" font-family="Liberation Sans, sans-serif" class="TextParagraph"><tspan y="5143" x="848" class="TextPosition"><tspan>Time (s)</tspan></tspan></tspan></text></svg>