<svg stroke-linejoin="round" xmlns="http://www.w3.org/2000/svg" height="90mm" width="160mm" stroke-width="28.222" viewBox="0 0 16000 9000"><path d="M7985 8999H-15V0h15999v8999H7985z" fill="#fff"/><g fill="none"><path d="M8719 7179H2178V1477h13082v5702H8719zm6541-1H2178m13082-713H2178m13082-713H2178m13082-713H2178m13082-712H2178m13082-713H2178m13082-713H2178m13082-713H2178m13082-712H2178m0 5852v-150m0 150v-150m817 150v-150m0 150v-150m818 150v-150m0 150v-150m818 150v-150m0 150v-150m817 150v-150m0 150v-150m818 150v-150m0 150v-150m818 150v-150m0 150v-150m817 150v-150m0 150v-150m817 150v-150m0 150v-150m818 150v-150m0 150v-150m817 150v-150m0 150v-150m818 150v-150m0 150v-150m818 150v-150m0 150v-150m817 150v-150m0 150v-150m818 150v-150m0 150v-150m818 150v-150m0 150v-150m818 150v-150m0 150v-150m-13082 0h13082m-13232 0h150m-150 0h150m-150-713h150m-150 0h150m-150-713h150m-150 0h150m-150-713h150m-150 0h150m-150-712h150m-150 0h150m-150-713h150m-150 0h150m-150-713h150m-150 0h150m-150-713h150m-150 0h150m-150-712h150m-150 0h150m0 5702V1476" stroke="#b3b3b3"/><path stroke="#579d1c" stroke-width="80" d="M2586 5992V2243l409 2388 409 792 409 383 409 231v-2l409 157 408 110v-1l409 47 409 39 409 30 409 32 409 26v-1 1l408 24 409 18 408 25v-6l409 7 409 4 409 8v-1l409 7 408 3 409 9 409-2 409 5 409-2 409 3 408 5v-11l409 4v-18l409 10v4l409 110v-136l409 159v-230"/></g><path d="M2461 5867v250h250v-250h-250z" fill="#579d1c"/><path stroke="#579d1c" d="M2461 5867v250h250v-250h-250z" fill="none"/><path d="M2461 2118v250h250v-250h-250z" fill="#579d1c"/><path stroke="#579d1c" d="M2461 2118v250h250v-250h-250z" fill="none"/><path d="M2870 4506v250h250v-250h-250z" fill="#579d1c"/><path stroke="#579d1c" d="M2870 4506v250h250v-250h-250z" fill="none"/><path d="M2870 4506v250h250v-250h-250z" fill="#579d1c"/><path stroke="#579d1c" d="M2870 4506v250h250v-250h-250z" fill="none"/><path d="M3279 5298v250h250v-250h-250z" fill="#579d1c"/><path stroke="#579d1c" d="M3279 5298v250h250v-250h-250z" fill="none"/><path d="M3688 5681v250h250v-250h-250z" fill="#579d1c"/><path stroke="#579d1c" d="M3688 5681v250h250v-250h-250z" fill="none"/><path d="M4097 5912v250h250v-250h-250z" fill="#579d1c"/><path stroke="#579d1c" d="M4097 5912v250h250v-250h-250z" fill="none"/><path d="M4097 5910v250h250v-250h-250z" fill="#579d1c"/><path stroke="#579d1c" d="M4097 5910v250h250v-250h-250z" fill="none"/><path d="M4506 6067v250h250v-250h-250z" fill="#579d1c"/><path stroke="#579d1c" d="M4506 6067v250h250v-250h-250z" fill="none"/><path d="M4914 6177v250h250v-250h-250z" fill="#579d1c"/><path stroke="#579d1c" d="M4914 6177v250h250v-250h-250z" fill="none"/><path d="M4914 6176v250h250v-250h-250z" fill="#579d1c"/><path stroke="#579d1c" d="M4914 6176v250h250v-250h-250z" fill="none"/><path d="M5323 6223v250h250v-250h-250z" fill="#579d1c"/><path stroke="#579d1c" d="M5323 6223v250h250v-250h-250z" fill="none"/><path d="M5732 6262v250h250v-250h-250z" fill="#579d1c"/><path stroke="#579d1c" d="M5732 6262v250h250v-250h-250z" fill="none"/><path d="M6141 6292v250h250v-250h-250z" fill="#579d1c"/><path stroke="#579d1c" d="M6141 6292v250h250v-250h-250z" fill="none"/><path d="M6550 6324v250h250v-250h-250z" fill="#579d1c"/><path stroke="#579d1c" d="M6550 6324v250h250v-250h-250z" fill="none"/><path d="M6959 6350v250h250v-250h-250z" fill="#579d1c"/><path stroke="#579d1c" d="M6959 6350v250h250v-250h-250z" fill="none"/><path d="M6959 6349v250h250v-250h-250z" fill="#579d1c"/><path stroke="#579d1c" d="M6959 6349v250h250v-250h-250z" fill="none"/><path d="M6959 6350v250h250v-250h-250z" fill="#579d1c"/><path stroke="#579d1c" d="M6959 6350v250h250v-250h-250z" fill="none"/><path d="M7367 6374v250h250v-250h-250z" fill="#579d1c"/><path stroke="#579d1c" d="M7367 6374v250h250v-250h-250z" fill="none"/><path d="M7776 6392v250h249v-250h-249z" fill="#579d1c"/><path stroke="#579d1c" d="M7776 6392v250h249v-250h-249z" fill="none"/><path d="M8184 6417v250h250v-250h-250z" fill="#579d1c"/><path stroke="#579d1c" d="M8184 6417v250h250v-250h-250z" fill="none"/><path d="M8184 6411v250h250v-250h-250z" fill="#579d1c"/><path stroke="#579d1c" d="M8184 6411v250h250v-250h-250z" fill="none"/><path d="M8593 6418v250h250v-250h-250z" fill="#579d1c"/><path stroke="#579d1c" d="M8593 6418v250h250v-250h-250z" fill="none"/><path d="M9002 6422v250h250v-250h-250z" fill="#579d1c"/><path stroke="#579d1c" d="M9002 6422v250h250v-250h-250z" fill="none"/><path d="M9411 6430v250h250v-250h-250z" fill="#579d1c"/><path stroke="#579d1c" d="M9411 6430v250h250v-250h-250z" fill="none"/><path d="M9411 6429v250h250v-250h-250z" fill="#579d1c"/><path stroke="#579d1c" d="M9411 6429v250h250v-250h-250z" fill="none"/><path d="M9820 6436v250h250v-250h-250z" fill="#579d1c"/><path stroke="#579d1c" d="M9820 6436v250h250v-250h-250z" fill="none"/><path d="M10228 6439v250h250v-250h-250z" fill="#579d1c"/><path stroke="#579d1c" d="M10228 6439v250h250v-250h-250z" fill="none"/><path d="M10637 6448v250h250v-250h-250z" fill="#579d1c"/><path stroke="#579d1c" d="M10637 6448v250h250v-250h-250z" fill="none"/><path d="M11046 6446v250h250v-250h-250z" fill="#579d1c"/><path stroke="#579d1c" d="M11046 6446v250h250v-250h-250z" fill="none"/><path d="M11455 6451v250h250v-250h-250z" fill="#579d1c"/><path stroke="#579d1c" d="M11455 6451v250h250v-250h-250z" fill="none"/><path d="M11864 6449v250h250v-250h-250z" fill="#579d1c"/><path stroke="#579d1c" d="M11864 6449v250h250v-250h-250z" fill="none"/><path d="M12273 6452v250h250v-250h-250z" fill="#579d1c"/><path stroke="#579d1c" d="M12273 6452v250h250v-250h-250z" fill="none"/><path d="M12681 6457v250h250v-250h-250z" fill="#579d1c"/><path stroke="#579d1c" d="M12681 6457v250h250v-250h-250z" fill="none"/><path d="M12681 6446v250h250v-250h-250z" fill="#579d1c"/><path stroke="#579d1c" d="M12681 6446v250h250v-250h-250z" fill="none"/><path d="M13090 6450v250h250v-250h-250z" fill="#579d1c"/><path stroke="#579d1c" d="M13090 6450v250h250v-250h-250z" fill="none"/><path d="M13090 6432v250h250v-250h-250z" fill="#579d1c"/><path stroke="#579d1c" d="M13090 6432v250h250v-250h-250z" fill="none"/><path d="M13499 6442v250h250v-250h-250z" fill="#579d1c"/><path stroke="#579d1c" d="M13499 6442v250h250v-250h-250z" fill="none"/><path d="M13499 6446v250h250v-250h-250z" fill="#579d1c"/><path stroke="#579d1c" d="M13499 6446v250h250v-250h-250z" fill="none"/><path d="M13908 6556v250h250v-250h-250z" fill="#579d1c"/><path stroke="#579d1c" d="M13908 6556v250h250v-250h-250z" fill="none"/><path d="M13908 6439v250h250v-250h-250z" fill="#579d1c"/><path stroke="#579d1c" d="M13908 6439v250h250v-250h-250z" fill="none"/><path d="M13908 6420v250h250v-250h-250z" fill="#579d1c"/><path stroke="#579d1c" d="M13908 6420v250h250v-250h-250z" fill="none"/><path d="M14317 6579v250h250v-250h-250z" fill="#579d1c"/><path stroke="#579d1c" d="M14317 6579v250h250v-250h-250z" fill="none"/><path d="M14317 6403v250h250v-250h-250z" fill="#579d1c"/><path stroke="#579d1c" d="M14317 6403v250h250v-250h-250z" fill="none"/><path d="M14317 6349v250h250v-250h-250z" fill="#579d1c"/><path stroke="#579d1c" d="M14317 6349v250h250v-250h-250z" fill="none"/><text class="TextShape"><tspan font-weight="400" font-size="353" font-family="Liberation Sans, sans-serif" class="TextParagraph"><tspan y="7755" x="2077" class="TextPosition"><tspan>0</tspan></tspan></tspan></text><text class="TextShape"><tspan font-weight="400" font-size="353" font-family="Liberation Sans, sans-serif" class="TextParagraph"><tspan y="7755" x="2894" class="TextPosition"><tspan>2</tspan></tspan></tspan></text><text class="TextShape"><tspan font-weight="400" font-size="353" font-family="Liberation Sans, sans-serif" class="TextParagraph"><tspan y="7755" x="3712" class="TextPosition"><tspan>4</tspan></tspan></tspan></text><text class="TextShape"><tspan font-weight="400" font-size="353" font-family="Liberation Sans, sans-serif" class="TextParagraph"><tspan y="7755" x="4530" class="TextPosition"><tspan>6</tspan></tspan></tspan></text><text class="TextShape"><tspan font-weight="400" font-size="353" font-family="Liberation Sans, sans-serif" class="TextParagraph"><tspan y="7755" x="5347" class="TextPosition"><tspan>8</tspan></tspan></tspan></text><text class="TextShape"><tspan font-weight="400" font-size="353" font-family="Liberation Sans, sans-serif" class="TextParagraph"><tspan y="7755" x="6065" class="TextPosition"><tspan>10</tspan></tspan></tspan></text><text class="TextShape"><tspan font-weight="400" font-size="353" font-family="Liberation Sans, sans-serif" class="TextParagraph"><tspan y="7755" x="6883" class="TextPosition"><tspan>12</tspan></tspan></tspan></text><text class="TextShape"><tspan font-weight="400" font-size="353" font-family="Liberation Sans, sans-serif" class="TextParagraph"><tspan y="7755" x="7700" class="TextPosition"><tspan>14</tspan></tspan></tspan></text><text class="TextShape"><tspan font-weight="400" font-size="353" font-family="Liberation Sans, sans-serif" class="TextParagraph"><tspan y="7755" x="8518" class="TextPosition"><tspan>16</tspan></tspan></tspan></text><text class="TextShape"><tspan font-weight="400" font-size="353" font-family="Liberation Sans, sans-serif" class="TextParagraph"><tspan y="7755" x="9336" class="TextPosition"><tspan>18</tspan></tspan></tspan></text><text class="TextShape"><tspan font-weight="400" font-size="353" font-family="Liberation Sans, sans-serif" class="TextParagraph"><tspan y="7755" x="10153" class="TextPosition"><tspan>20</tspan></tspan></tspan></text><text class="TextShape"><tspan font-weight="400" font-size="353" font-family="Liberation Sans, sans-serif" class="TextParagraph"><tspan y="7755" x="10971" class="TextPosition"><tspan>22</tspan></tspan></tspan></text><text class="TextShape"><tspan font-weight="400" font-size="353" font-family="Liberation Sans, sans-serif" class="TextParagraph"><tspan y="7755" x="11789" class="TextPosition"><tspan>24</tspan></tspan></tspan></text><text class="TextShape"><tspan font-weight="400" font-size="353" font-family="Liberation Sans, sans-serif" class="TextParagraph"><tspan y="7755" x="12606" class="TextPosition"><tspan>26</tspan></tspan></tspan></text><text class="TextShape"><tspan font-weight="400" font-size="353" font-family="Liberation Sans, sans-serif" class="TextParagraph"><tspan y="7755" x="13424" class="TextPosition"><tspan>28</tspan></tspan></tspan></text><text class="TextShape"><tspan font-weight="400" font-size="353" font-family="Liberation Sans, sans-serif" class="TextParagraph"><tspan y="7755" x="14242" class="TextPosition"><tspan>30</tspan></tspan></tspan></text><text class="TextShape"><tspan font-weight="400" font-size="353" font-family="Liberation Sans, sans-serif" class="TextParagraph"><tspan y="7755" x="15060" class="TextPosition"><tspan>32</tspan></tspan></tspan></text><text class="TextShape"><tspan font-weight="400" font-size="353" font-family="Liberation Sans, sans-serif" class="TextParagraph"><tspan y="7305" x="1727" class="TextPosition"><tspan>0</tspan></tspan></tspan></text><text class="TextShape"><tspan font-weight="400" font-size="353" font-family="Liberation Sans, sans-serif" class="TextParagraph"><tspan y="6592" x="1324" class="TextPosition"><tspan>200</tspan></tspan></tspan></text><text class="TextShape"><tspan font-weight="400" font-size="353" font-family="Liberation Sans, sans-serif" class="TextParagraph"><tspan y="5879" x="1324" class="TextPosition"><tspan>400</tspan></tspan></tspan></text><text class="TextShape"><tspan font-weight="400" font-size="353" font-family="Liberation Sans, sans-serif" class="TextParagraph"><tspan y="5166" x="1324" class="TextPosition"><tspan>600</tspan></tspan></tspan></text><text class="TextShape"><tspan font-weight="400" font-size="353" font-family="Liberation Sans, sans-serif" class="TextParagraph"><tspan y="4453" x="1324" class="TextPosition"><tspan>800</tspan></tspan></tspan></text><text class="TextShape"><tspan font-weight="400" font-size="353" font-family="Liberation Sans, sans-serif" class="TextParagraph"><tspan y="3740" x="1123" class="TextPosition"><tspan>1000</tspan></tspan></tspan></text><text class="TextShape"><tspan font-weight="400" font-size="353" font-family="Liberation Sans, sans-serif" class="TextParagraph"><tspan y="3027" x="1123" class="TextPosition"><tspan>1200</tspan></tspan></tspan></text><text class="TextShape"><tspan font-weight="400" font-size="353" font-family="Liberation Sans, sans-serif" class="TextParagraph"><tspan y="2314" x="1123" class="TextPosition"><tspan>1400</tspan></tspan></tspan></text><text class="TextShape"><tspan font-weight="400" font-size="353" font-family="Liberation Sans, sans-serif" class="TextParagraph"><tspan y="1602" x="1123" class="TextPosition"><tspan>1600</tspan></tspan></tspan></text><text class="TextShape"><tspan font-weight="400" font-size="459" font-family="Liberation Sans, sans-serif" class="TextParagraph"><tspan y="856" x="3169" class="TextPosition"><tspan>Compiling the Linux Kernel on a Sun Fire T2000</tspan></tspan></tspan></text><text class="TextShape"><tspan font-weight="400" font-size="318" font-family="Liberation Sans, sans-serif" class="TextParagraph"><tspan y="8410" x="7928" class="TextPosition"><tspan># Cores</tspan></tspan></tspan></text><text class="TextShape" transform="rotate(-90 833 5143)"><tspan font-weight="400" font-size="318" font-family="Liberation Sans, sans-serif" class="TextParagraph"><tspan y="5143" x="833" class="TextPosition"><tspan>Time (s)</tspan></tspan></tspan></text></svg>